<svg width="1116" height="352" viewBox="0 0 1116 352" fill="none" xmlns="http://www.w3.org/2000/svg">
<path d="M58.6027 49.916L30.7783 134.724H8.36416L46.3768 32.4203H60.6403L58.6027 49.916ZM81.7194 134.724L53.8247 49.916L51.5763 32.4203H65.9803L104.204 134.724H81.7194ZM80.4547 96.6413V113.153H26.4219V96.6413H80.4547ZM136.103 32.4203V134.724H115.095V32.4203H136.103ZM187.255 134.724H164.982L165.122 118.282H187.255C192.783 118.282 197.444 117.041 201.238 114.559C205.032 112.029 207.889 108.352 209.81 103.527C211.777 98.7024 212.761 92.8705 212.761 86.0315V81.0428C212.761 75.7964 212.199 71.1824 211.075 67.2008C209.997 63.2192 208.381 59.87 206.227 57.1531C204.072 54.4363 201.425 52.3986 198.287 51.0402C195.148 49.6349 191.541 48.9323 187.466 48.9323H164.56V32.4203H187.466C194.305 32.4203 200.559 33.5914 206.227 35.9335C211.941 38.2288 216.883 41.5312 221.052 45.8407C225.221 50.1502 228.43 55.3028 230.678 61.2987C232.974 67.2477 234.121 73.8759 234.121 81.1833V86.0315C234.121 93.2921 232.974 99.9203 230.678 105.916C228.43 111.912 225.221 117.065 221.052 121.374C216.93 125.637 211.988 128.939 206.227 131.281C200.512 133.577 194.188 134.724 187.255 134.724ZM176.927 32.4203V134.724H155.848V32.4203H176.927ZM289.489 49.916L261.665 134.724H239.25L277.263 32.4203H291.527L289.489 49.916ZM312.606 134.724L284.711 49.916L282.463 32.4203H296.867L335.09 134.724H312.606ZM311.341 96.6413V113.153H257.308V96.6413H311.341ZM427.838 32.4203V134.724H406.759L365.655 66.1469V134.724H344.576V32.4203H365.655L406.829 101.068V32.4203H427.838Z" fill="white"/>
<path d="M18.806 194.069H36.6529L62.9316 269.181L89.2102 194.069H107.057L70.0984 296.373H55.7647L18.806 194.069ZM9.17987 194.069H26.9566L30.1887 267.283V296.373H9.17987V194.069ZM98.9065 194.069H116.753V296.373H95.6744V267.283L98.9065 194.069ZM178.094 211.564L150.269 296.373H127.855L165.868 194.069H180.131L178.094 211.564ZM201.21 296.373L173.316 211.564L171.067 194.069H185.471L223.695 296.373H201.21ZM199.946 258.29V274.802H145.913V258.29H199.946ZM291.218 262.435H312.227C311.805 269.321 309.908 275.434 306.536 280.774C303.21 286.114 298.549 290.283 292.553 293.281C286.604 296.279 279.437 297.778 271.052 297.778C264.495 297.778 258.616 296.654 253.416 294.405C248.217 292.11 243.767 288.831 240.066 284.568C236.412 280.306 233.625 275.153 231.705 269.11C229.784 263.068 228.824 256.299 228.824 248.804V241.707C228.824 234.213 229.808 227.444 231.775 221.401C233.789 215.312 236.647 210.136 240.347 205.873C244.095 201.61 248.568 198.331 253.768 196.036C258.967 193.741 264.776 192.593 271.193 192.593C279.718 192.593 286.909 194.139 292.764 197.231C298.666 200.322 303.233 204.585 306.465 210.019C309.744 215.452 311.712 221.635 312.367 228.568H291.288C291.054 224.446 290.234 220.956 288.829 218.099C287.424 215.195 285.293 213.016 282.435 211.564C279.625 210.065 275.877 209.316 271.193 209.316C267.68 209.316 264.612 209.972 261.988 211.283C259.365 212.595 257.164 214.586 255.384 217.256C253.604 219.926 252.269 223.298 251.379 227.374C250.535 231.402 250.114 236.133 250.114 241.567V248.804C250.114 254.097 250.512 258.758 251.308 262.787C252.105 266.768 253.323 270.141 254.962 272.905C256.648 275.621 258.803 277.682 261.426 279.088C264.096 280.446 267.305 281.125 271.052 281.125C275.456 281.125 279.086 280.423 281.943 279.017C284.801 277.612 286.979 275.528 288.478 272.764C290.024 270 290.937 266.557 291.218 262.435ZM347.148 194.069V296.373H326.069V194.069H347.148ZM408.418 194.069L367.876 244.588L344.478 269.743L340.684 249.788L356.493 228.147L382.561 194.069H408.418ZM384.458 296.373L354.315 249.085L369.913 236.016L409.402 296.373H384.458ZM486.2 279.931V296.373H431.745V279.931H486.2ZM438.631 194.069V296.373H417.552V194.069H438.631ZM479.103 235.735V251.755H431.745V235.735H479.103ZM486.129 194.069V210.581H431.745V194.069H486.129ZM581.758 194.069V296.373H560.679L519.575 227.795V296.373H498.496V194.069H519.575L560.749 262.716V194.069H581.758ZM674.085 279.931V296.373H601.573V279.931H674.085ZM673.031 205.803L610.918 296.373H596.092V284.287L658.697 194.069H673.031V205.803ZM665.794 194.069V210.581H596.162V194.069H665.794ZM709.919 194.069V296.373H688.91V194.069H709.919ZM798.311 279.931V296.373H743.856V279.931H798.311ZM750.742 194.069V296.373H729.663V194.069H750.742ZM791.214 235.735V251.755H743.856V235.735H791.214ZM798.241 194.069V210.581H743.856V194.069H798.241Z" fill="white"/>
<path fill-rule="evenodd" clip-rule="evenodd" d="M491.16 147.049H7.87231V179.836H511.331L491.16 147.049ZM23.3992 173.416H25.3721C26.6963 173.416 27.9042 173.196 28.9958 172.758C30.0963 172.311 31.0403 171.68 31.8276 170.866C32.624 170.042 33.2369 169.058 33.6663 167.913C34.1048 166.768 34.324 165.502 34.324 164.115V163.189C34.324 161.793 34.1048 160.527 33.6663 159.39C33.2369 158.245 32.624 157.261 31.8276 156.438C31.0313 155.615 30.0874 154.984 28.9958 154.545C27.9131 154.098 26.7187 153.874 25.4123 153.874H23.3992H21.037H19.3728V173.416H21.1176H23.3992ZM23.3992 170.275H25.3721C26.4279 170.275 27.3181 170.038 28.0429 169.564C28.7676 169.08 29.3134 168.378 29.6803 167.457C30.0561 166.535 30.2439 165.421 30.2439 164.115V163.162C30.2439 162.16 30.1366 161.278 29.9218 160.518C29.7161 159.757 29.4074 159.118 28.9958 158.599C28.5842 158.08 28.0787 157.69 27.4792 157.431C26.8797 157.163 26.1908 157.028 25.4123 157.028H23.3992V170.275ZM41.0882 173.416V158.894H37.2095V173.416H41.0882ZM37.5585 153.713C37.1648 154.08 36.9679 154.545 36.9679 155.109C36.9679 155.673 37.1648 156.138 37.5585 156.505C37.9522 156.872 38.4801 157.055 39.1422 157.055C39.7953 157.055 40.3188 156.872 40.7124 156.505C41.1151 156.138 41.3164 155.673 41.3164 155.109C41.3164 154.545 41.1151 154.08 40.7124 153.713C40.3188 153.346 39.7953 153.163 39.1422 153.163C38.4801 153.163 37.9522 153.346 37.5585 153.713ZM56.9789 158.894H53.476L53.322 160.268C52.9555 159.808 52.5192 159.44 52.013 159.162C51.3599 158.804 50.5501 158.625 49.5838 158.625C48.6712 158.625 47.8525 158.804 47.1278 159.162C46.403 159.52 45.7856 160.026 45.2756 160.679C44.7746 161.332 44.3854 162.115 44.108 163.028C43.8396 163.931 43.7054 164.938 43.7054 166.047V166.329C43.7054 167.385 43.8396 168.36 44.108 169.255C44.3854 170.15 44.779 170.928 45.2891 171.59C45.7991 172.252 46.412 172.767 47.1278 173.134C47.8525 173.501 48.6622 173.684 49.557 173.684C50.4517 173.684 51.2212 173.505 51.8654 173.147C52.3317 172.892 52.7433 172.563 53.1002 172.162V172.959C53.1002 173.648 52.9704 174.234 52.7109 174.717C52.4515 175.209 52.0802 175.581 51.597 175.831C51.1138 176.091 50.5233 176.221 49.8254 176.221C49.1096 176.221 48.4564 176.073 47.8659 175.778C47.2754 175.491 46.7564 175.089 46.3091 174.57L44.6046 176.851C45.0162 177.37 45.5262 177.8 46.1346 178.14C46.752 178.48 47.3962 178.73 48.0672 178.891C48.7472 179.052 49.3914 179.133 49.9999 179.133C51.3867 179.133 52.6036 178.891 53.6504 178.408C54.6973 177.934 55.5115 177.232 56.0931 176.301C56.6836 175.379 56.9789 174.257 56.9789 172.932V158.894ZM53.1002 163.031V169.297C52.8886 169.662 52.6112 169.961 52.268 170.194C51.8207 170.49 51.2436 170.637 50.5367 170.637C50.0267 170.637 49.5838 170.53 49.208 170.315C48.8412 170.092 48.5325 169.783 48.282 169.389C48.0404 168.987 47.8614 168.526 47.7451 168.007C47.6288 167.488 47.5706 166.929 47.5706 166.329V166.047C47.5706 165.43 47.6333 164.857 47.7585 164.329C47.8838 163.793 48.0672 163.327 48.3088 162.934C48.5593 162.54 48.868 162.231 49.2349 162.008C49.6107 161.775 50.0536 161.659 50.5636 161.659C51.0915 161.659 51.5478 161.748 51.9325 161.927C52.3173 162.106 52.6304 162.356 52.872 162.679C52.9543 162.788 53.0303 162.906 53.1002 163.031ZM64.0652 173.416V158.894H60.1865V173.416H64.0652ZM60.5355 153.713C60.1418 154.08 59.9449 154.545 59.9449 155.109C59.9449 155.673 60.1418 156.138 60.5355 156.505C60.9292 156.872 61.4571 157.055 62.1192 157.055C62.7723 157.055 63.2958 156.872 63.6894 156.505C64.0921 156.138 64.2934 155.673 64.2934 155.109C64.2934 154.545 64.0921 154.08 63.6894 153.713C63.2958 153.346 62.7723 153.163 62.1192 153.163C61.4571 153.163 60.9292 153.346 60.5355 153.713ZM74.3727 161.632V158.894H71.8763V155.31H68.0111V158.894H65.9174V161.632H68.0111V169.429C68.0111 170.449 68.1811 171.273 68.5211 171.899C68.8611 172.525 69.3442 172.982 69.9705 173.268C70.6058 173.545 71.3484 173.684 72.1984 173.684C72.6637 173.684 73.0887 173.653 73.4735 173.59C73.8582 173.527 74.2161 173.442 74.5471 173.335L74.5337 170.49C74.3995 170.517 74.234 170.543 74.0371 170.57C73.8493 170.588 73.6345 170.597 73.3929 170.597C73.0529 170.597 72.7711 170.557 72.5474 170.476C72.3237 170.387 72.1537 170.23 72.0374 170.007C71.93 169.783 71.8763 169.461 71.8763 169.04V161.632H74.3727ZM84.5655 172.052C84.4283 172.211 84.2786 172.366 84.1164 172.516C83.7406 172.856 83.2888 173.138 82.7609 173.362C82.233 173.577 81.6067 173.684 80.8819 173.684C79.9603 173.684 79.1238 173.501 78.3722 173.134C77.6295 172.758 77.039 172.243 76.6006 171.59C76.1711 170.928 75.9564 170.177 75.9564 169.335C75.9564 168.575 76.0995 167.899 76.3858 167.309C76.6722 166.718 77.0927 166.222 77.6474 165.819C78.2111 165.408 78.9135 165.099 79.7546 164.893C80.5956 164.678 81.5709 164.571 82.6804 164.571H84.4117V163.672C84.4117 163.207 84.3356 162.808 84.1835 162.477C84.0314 162.137 83.7943 161.873 83.4722 161.685C83.159 161.498 82.7519 161.404 82.2509 161.404C81.8214 161.404 81.4501 161.48 81.1369 161.632C80.8238 161.775 80.5822 161.985 80.4122 162.263C80.2422 162.531 80.1572 162.849 80.1572 163.215H76.2919C76.2919 162.598 76.4351 162.012 76.7214 161.457C77.0077 160.903 77.4237 160.415 77.9695 159.994C78.5153 159.565 79.164 159.229 79.9156 158.988C80.6761 158.746 81.5261 158.625 82.4656 158.625C83.593 158.625 84.5951 158.813 85.472 159.189C86.3488 159.565 87.0378 160.129 87.5388 160.88C88.0488 161.632 88.3038 162.571 88.3038 163.699V169.913C88.3038 170.709 88.353 171.362 88.4515 171.872C88.5499 172.373 88.693 172.812 88.8809 173.187V173.416H84.9754C84.7996 173.047 84.6629 172.593 84.5655 172.052ZM84.4117 169.311C84.3625 169.403 84.3044 169.496 84.2372 169.59C84.0046 169.93 83.6735 170.217 83.244 170.449C82.8146 170.682 82.309 170.798 81.7275 170.798C81.3427 170.798 81.0072 170.727 80.7209 170.584C80.4346 170.432 80.2153 170.226 80.0632 169.966C79.9111 169.698 79.8351 169.398 79.8351 169.067C79.8351 168.736 79.8888 168.432 79.9961 168.154C80.1124 167.877 80.2914 167.635 80.533 167.43C80.7746 167.215 81.0832 167.049 81.459 166.933C81.8348 166.817 82.2777 166.759 82.7877 166.759H84.4117V169.311ZM95.3633 173.416V152.801H91.4846V173.416H95.3633ZM109.67 173.416H111.643C112.967 173.416 114.175 173.196 115.267 172.758C116.367 172.311 117.311 171.68 118.099 170.866C118.895 170.042 119.508 169.058 119.937 167.913C120.376 166.768 120.595 165.502 120.595 164.115V163.189C120.595 161.793 120.376 160.527 119.937 159.39C119.508 158.245 118.895 157.261 118.099 156.438C117.302 155.615 116.358 154.984 115.267 154.545C114.184 154.098 112.99 153.874 111.683 153.874H109.67H107.308H105.644V173.416H107.389H109.67ZM109.67 170.275H111.643C112.699 170.275 113.589 170.038 114.314 169.564C115.039 169.08 115.585 168.378 115.951 167.457C116.327 166.535 116.515 165.421 116.515 164.115V163.162C116.515 162.16 116.408 161.278 116.193 160.518C115.987 159.757 115.678 159.118 115.267 158.599C114.855 158.08 114.35 157.69 113.75 157.431C113.151 157.163 112.462 157.028 111.683 157.028H109.67V170.275ZM126.93 173.147C127.825 173.505 128.836 173.684 129.963 173.684C130.903 173.684 131.739 173.559 132.473 173.308C133.206 173.049 133.833 172.718 134.352 172.315C134.88 171.912 135.296 171.492 135.6 171.053L133.721 169.013C133.283 169.568 132.759 169.984 132.151 170.262C131.551 170.53 130.903 170.664 130.205 170.664C129.641 170.664 129.135 170.566 128.688 170.369C128.25 170.172 127.874 169.895 127.561 169.537C127.256 169.179 127.019 168.754 126.849 168.262C126.755 167.973 126.688 167.669 126.649 167.349H135.922V165.739C135.922 164.674 135.783 163.708 135.506 162.84C135.229 161.963 134.817 161.211 134.271 160.585C133.734 159.959 133.068 159.475 132.271 159.135C131.475 158.795 130.563 158.625 129.534 158.625C128.478 158.625 127.529 158.809 126.688 159.176C125.847 159.534 125.131 160.048 124.541 160.719C123.959 161.39 123.512 162.182 123.199 163.095C122.886 164.007 122.729 165.014 122.729 166.114V166.651C122.729 167.618 122.895 168.53 123.226 169.389C123.557 170.239 124.031 170.986 124.648 171.631C125.275 172.275 126.035 172.78 126.93 173.147ZM126.696 164.772C126.717 164.626 126.741 164.482 126.769 164.343C126.885 163.797 127.055 163.323 127.279 162.92C127.511 162.518 127.811 162.204 128.178 161.981C128.545 161.757 128.983 161.645 129.493 161.645C130.093 161.645 130.585 161.77 130.97 162.021C131.354 162.271 131.641 162.611 131.829 163.041C132.025 163.462 132.124 163.94 132.124 164.477V164.772H126.696ZM145.733 168.651C145.894 168.875 145.974 169.125 145.974 169.403C145.974 169.716 145.885 169.993 145.706 170.235C145.536 170.467 145.286 170.655 144.954 170.798C144.623 170.933 144.207 171 143.706 171C143.241 171 142.807 170.928 142.404 170.785C142.011 170.642 141.684 170.409 141.425 170.087C141.174 169.765 141.04 169.34 141.022 168.812H137.358C137.358 169.599 137.595 170.369 138.069 171.121C138.553 171.863 139.259 172.476 140.19 172.959C141.129 173.442 142.275 173.684 143.626 173.684C144.556 173.684 145.393 173.577 146.136 173.362C146.887 173.138 147.531 172.829 148.068 172.436C148.605 172.033 149.017 171.563 149.303 171.027C149.589 170.49 149.732 169.899 149.732 169.255C149.732 168.307 149.491 167.542 149.008 166.96C148.524 166.369 147.871 165.904 147.048 165.564C146.225 165.215 145.29 164.933 144.243 164.719C143.733 164.62 143.304 164.513 142.955 164.397C142.615 164.271 142.337 164.137 142.123 163.994C141.908 163.851 141.751 163.694 141.653 163.524C141.563 163.345 141.519 163.144 141.519 162.92C141.519 162.625 141.599 162.356 141.76 162.115C141.93 161.864 142.172 161.668 142.485 161.524C142.798 161.372 143.169 161.296 143.599 161.296C144.118 161.296 144.538 161.386 144.861 161.565C145.192 161.735 145.433 161.972 145.585 162.276C145.746 162.571 145.827 162.907 145.827 163.283H149.692C149.692 162.388 149.446 161.591 148.954 160.894C148.471 160.187 147.773 159.632 146.86 159.229C145.957 158.827 144.874 158.625 143.612 158.625C142.709 158.625 141.894 158.746 141.17 158.988C140.454 159.22 139.845 159.547 139.344 159.968C138.852 160.379 138.472 160.853 138.204 161.39C137.944 161.927 137.814 162.5 137.814 163.108C137.814 163.725 137.944 164.276 138.204 164.759C138.463 165.233 138.821 165.645 139.277 165.994C139.743 166.343 140.288 166.642 140.915 166.893C141.55 167.134 142.234 167.336 142.968 167.497C143.782 167.658 144.404 167.837 144.834 168.034C145.272 168.222 145.572 168.427 145.733 168.651ZM156.322 173.416V158.894H152.443V173.416H156.322ZM152.792 153.713C152.399 154.08 152.202 154.545 152.202 155.109C152.202 155.673 152.399 156.138 152.792 156.505C153.186 156.872 153.714 157.055 154.376 157.055C155.029 157.055 155.553 156.872 155.946 156.505C156.349 156.138 156.55 155.673 156.55 155.109C156.55 154.545 156.349 154.08 155.946 153.713C155.553 153.346 155.029 153.163 154.376 153.163C153.714 153.163 153.186 153.346 152.792 153.713ZM172.213 158.894H168.71L168.556 160.268C168.189 159.808 167.753 159.44 167.247 159.162C166.594 158.804 165.784 158.625 164.818 158.625C163.905 158.625 163.086 158.804 162.362 159.162C161.637 159.52 161.02 160.026 160.51 160.679C160.009 161.332 159.619 162.115 159.342 163.028C159.074 163.931 158.939 164.938 158.939 166.047V166.329C158.939 167.385 159.074 168.36 159.342 169.255C159.619 170.15 160.013 170.928 160.523 171.59C161.033 172.252 161.646 172.767 162.362 173.134C163.086 173.501 163.896 173.684 164.791 173.684C165.686 173.684 166.455 173.505 167.099 173.147C167.566 172.892 167.977 172.563 168.334 172.162V172.959C168.334 173.648 168.204 174.234 167.945 174.717C167.685 175.209 167.314 175.581 166.831 175.831C166.348 176.091 165.757 176.221 165.059 176.221C164.344 176.221 163.69 176.073 163.1 175.778C162.509 175.491 161.99 175.089 161.543 174.57L159.839 176.851C160.25 177.37 160.76 177.8 161.369 178.14C161.986 178.48 162.63 178.73 163.301 178.891C163.981 179.052 164.625 179.133 165.234 179.133C166.621 179.133 167.838 178.891 168.884 178.408C169.931 177.934 170.745 177.232 171.327 176.301C171.918 175.379 172.213 174.257 172.213 172.932V158.894ZM168.334 163.031V169.297C168.123 169.662 167.845 169.961 167.502 170.194C167.055 170.49 166.478 170.637 165.771 170.637C165.261 170.637 164.818 170.53 164.442 170.315C164.075 170.092 163.766 169.783 163.516 169.389C163.274 168.987 163.095 168.526 162.979 168.007C162.863 167.488 162.805 166.929 162.805 166.329V166.047C162.805 165.43 162.867 164.857 162.992 164.329C163.118 163.793 163.301 163.327 163.543 162.934C163.793 162.54 164.102 162.231 164.469 162.008C164.845 161.775 165.287 161.659 165.798 161.659C166.325 161.659 166.782 161.748 167.166 161.927C167.551 162.106 167.864 162.356 168.106 162.679C168.188 162.788 168.264 162.906 168.334 163.031ZM179.004 163.114V173.416H175.139V158.894H178.762L178.898 160.63C178.924 160.597 178.95 160.564 178.977 160.531C179.478 159.914 180.073 159.444 180.762 159.122C181.46 158.791 182.238 158.625 183.097 158.625C183.777 158.625 184.399 158.724 184.963 158.921C185.527 159.118 186.01 159.431 186.412 159.86C186.824 160.29 187.137 160.858 187.352 161.565C187.576 162.271 187.687 163.135 187.687 164.155V173.416H183.795V164.142C183.795 163.497 183.706 162.996 183.527 162.638C183.348 162.28 183.084 162.03 182.735 161.887C182.395 161.735 181.974 161.659 181.473 161.659C180.954 161.659 180.503 161.761 180.118 161.967C179.742 162.173 179.429 162.459 179.178 162.826C179.116 162.918 179.058 163.014 179.004 163.114ZM205.463 172.052C205.326 172.211 205.176 172.366 205.014 172.516C204.638 172.856 204.186 173.138 203.659 173.362C203.131 173.577 202.504 173.684 201.78 173.684C200.858 173.684 200.021 173.501 199.27 173.134C198.527 172.758 197.937 172.243 197.498 171.59C197.069 170.928 196.854 170.177 196.854 169.335C196.854 168.575 196.997 167.899 197.284 167.309C197.57 166.718 197.99 166.222 198.545 165.819C199.109 165.408 199.811 165.099 200.652 164.893C201.493 164.678 202.469 164.571 203.578 164.571H205.309V163.672C205.309 163.207 205.233 162.808 205.081 162.477C204.929 162.137 204.692 161.873 204.37 161.685C204.057 161.498 203.65 161.404 203.149 161.404C202.719 161.404 202.348 161.48 202.035 161.632C201.721 161.775 201.48 161.985 201.31 162.263C201.14 162.531 201.055 162.849 201.055 163.215H197.19C197.19 162.598 197.333 162.012 197.619 161.457C197.905 160.903 198.321 160.415 198.867 159.994C199.413 159.565 200.062 159.229 200.813 158.988C201.574 158.746 202.424 158.625 203.363 158.625C204.491 158.625 205.493 158.813 206.37 159.189C207.246 159.565 207.935 160.129 208.436 160.88C208.946 161.632 209.201 162.571 209.201 163.699V169.913C209.201 170.709 209.251 171.362 209.349 171.872C209.448 172.373 209.591 172.812 209.779 173.187V173.416H205.873C205.697 173.047 205.561 172.593 205.463 172.052ZM205.309 169.311C205.26 169.403 205.202 169.496 205.135 169.59C204.902 169.93 204.571 170.217 204.142 170.449C203.712 170.682 203.207 170.798 202.625 170.798C202.24 170.798 201.905 170.727 201.619 170.584C201.332 170.432 201.113 170.226 200.961 169.966C200.809 169.698 200.733 169.398 200.733 169.067C200.733 168.736 200.786 168.432 200.894 168.154C201.01 167.877 201.189 167.635 201.431 167.43C201.672 167.215 201.981 167.049 202.357 166.933C202.732 166.817 203.175 166.759 203.685 166.759H205.309V169.311ZM215.966 163.114V173.416H212.1V158.894H215.724L215.859 160.63C215.886 160.597 215.912 160.564 215.939 160.531C216.44 159.914 217.035 159.444 217.724 159.122C218.422 158.791 219.2 158.625 220.059 158.625C220.739 158.625 221.361 158.724 221.925 158.921C222.488 159.118 222.972 159.431 223.374 159.86C223.786 160.29 224.099 160.858 224.314 161.565C224.537 162.271 224.649 163.135 224.649 164.155V173.416H220.757V164.142C220.757 163.497 220.668 162.996 220.489 162.638C220.31 162.28 220.046 162.03 219.697 161.887C219.357 161.735 218.936 161.659 218.435 161.659C217.916 161.659 217.464 161.761 217.08 161.967C216.704 162.173 216.391 162.459 216.14 162.826C216.078 162.918 216.02 163.014 215.966 163.114ZM236.364 171.867C235.949 172.405 235.457 172.832 234.89 173.147C234.245 173.505 233.494 173.684 232.635 173.684C231.731 173.684 230.926 173.501 230.219 173.134C229.521 172.767 228.931 172.252 228.447 171.59C227.973 170.928 227.611 170.15 227.36 169.255C227.11 168.36 226.985 167.385 226.985 166.329V166.047C226.985 164.938 227.11 163.931 227.36 163.028C227.611 162.115 227.978 161.332 228.461 160.679C228.944 160.026 229.539 159.52 230.246 159.162C230.953 158.804 231.758 158.625 232.662 158.625C233.512 158.625 234.254 158.804 234.89 159.162C235.369 159.429 235.794 159.779 236.165 160.214V152.801H240.057V173.416H236.554L236.364 171.867ZM236.165 163.226C236.069 163.026 235.957 162.844 235.829 162.679C235.587 162.356 235.283 162.106 234.916 161.927C234.559 161.748 234.133 161.659 233.641 161.659C233.14 161.659 232.711 161.775 232.353 162.008C231.995 162.231 231.704 162.54 231.481 162.934C231.266 163.327 231.105 163.793 230.997 164.329C230.899 164.857 230.85 165.43 230.85 166.047V166.329C230.85 166.929 230.895 167.488 230.984 168.007C231.082 168.526 231.239 168.987 231.454 169.389C231.677 169.783 231.964 170.092 232.313 170.315C232.671 170.53 233.105 170.637 233.615 170.637C234.277 170.637 234.822 170.49 235.252 170.194C235.64 169.919 235.944 169.553 236.165 169.095V163.226ZM264.966 153.874H260.953V166.785C260.953 167.662 260.815 168.378 260.537 168.933C260.269 169.488 259.875 169.895 259.356 170.154C258.846 170.414 258.224 170.543 257.491 170.543C256.775 170.543 256.153 170.414 255.625 170.154C255.106 169.895 254.708 169.488 254.431 168.933C254.153 168.378 254.015 167.662 254.015 166.785V153.874H249.988V166.785C249.988 168.289 250.306 169.555 250.941 170.584C251.585 171.613 252.471 172.387 253.599 172.906C254.735 173.424 256.032 173.684 257.491 173.684C258.949 173.684 260.238 173.424 261.356 172.906C262.483 172.387 263.365 171.613 264 170.584C264.644 169.555 264.966 168.289 264.966 166.785V153.874ZM275.65 168.651C275.811 168.875 275.891 169.125 275.891 169.403C275.891 169.716 275.802 169.993 275.623 170.235C275.453 170.467 275.202 170.655 274.871 170.798C274.54 170.933 274.124 171 273.623 171C273.158 171 272.724 170.928 272.321 170.785C271.927 170.642 271.601 170.409 271.341 170.087C271.091 169.765 270.957 169.34 270.939 168.812H267.275C267.275 169.599 267.512 170.369 267.986 171.121C268.469 171.863 269.176 172.476 270.107 172.959C271.046 173.442 272.191 173.684 273.542 173.684C274.473 173.684 275.31 173.577 276.052 173.362C276.804 173.138 277.448 172.829 277.985 172.436C278.522 172.033 278.933 171.563 279.22 171.027C279.506 170.49 279.649 169.899 279.649 169.255C279.649 168.307 279.408 167.542 278.924 166.96C278.441 166.369 277.788 165.904 276.965 165.564C276.142 165.215 275.207 164.933 274.16 164.719C273.65 164.62 273.22 164.513 272.871 164.397C272.531 164.271 272.254 164.137 272.039 163.994C271.825 163.851 271.668 163.694 271.57 163.524C271.48 163.345 271.435 163.144 271.435 162.92C271.435 162.625 271.516 162.356 271.677 162.115C271.847 161.864 272.089 161.668 272.402 161.524C272.715 161.372 273.086 161.296 273.516 161.296C274.035 161.296 274.455 161.386 274.777 161.565C275.108 161.735 275.35 161.972 275.502 162.276C275.663 162.571 275.744 162.907 275.744 163.283H279.609C279.609 162.388 279.363 161.591 278.871 160.894C278.387 160.187 277.69 159.632 276.777 159.229C275.873 158.827 274.791 158.625 273.529 158.625C272.625 158.625 271.811 158.746 271.086 158.988C270.371 159.22 269.762 159.547 269.261 159.968C268.769 160.379 268.389 160.853 268.12 161.39C267.861 161.927 267.731 162.5 267.731 163.108C267.731 163.725 267.861 164.276 268.12 164.759C268.38 165.233 268.738 165.645 269.194 165.994C269.659 166.343 270.205 166.642 270.831 166.893C271.467 167.134 272.151 167.336 272.885 167.497C273.699 167.658 274.321 167.837 274.75 168.034C275.189 168.222 275.489 168.427 275.65 168.651ZM285.809 173.147C286.704 173.505 287.715 173.684 288.843 173.684C289.782 173.684 290.619 173.559 291.352 173.308C292.086 173.049 292.712 172.718 293.231 172.315C293.759 171.912 294.175 171.492 294.479 171.053L292.6 169.013C292.162 169.568 291.639 169.984 291.03 170.262C290.431 170.53 289.782 170.664 289.084 170.664C288.52 170.664 288.015 170.566 287.568 170.369C287.129 170.172 286.753 169.895 286.44 169.537C286.136 169.179 285.899 168.754 285.729 168.262C285.634 167.973 285.568 167.669 285.529 167.349H294.802V165.739C294.802 164.674 294.663 163.708 294.385 162.84C294.108 161.963 293.697 161.211 293.151 160.585C292.614 159.959 291.947 159.475 291.151 159.135C290.355 158.795 289.442 158.625 288.413 158.625C287.357 158.625 286.409 158.809 285.568 159.176C284.727 159.534 284.011 160.048 283.42 160.719C282.839 161.39 282.391 162.182 282.078 163.095C281.765 164.007 281.609 165.014 281.609 166.114V166.651C281.609 167.618 281.774 168.53 282.105 169.389C282.436 170.239 282.91 170.986 283.528 171.631C284.154 172.275 284.915 172.78 285.809 173.147ZM285.575 164.772C285.596 164.626 285.62 164.482 285.648 164.343C285.765 163.797 285.935 163.323 286.158 162.92C286.391 162.518 286.691 162.204 287.058 161.981C287.424 161.757 287.863 161.645 288.373 161.645C288.972 161.645 289.464 161.77 289.849 162.021C290.234 162.271 290.52 162.611 290.708 163.041C290.905 163.462 291.003 163.94 291.003 164.477V164.772H285.575ZM300.868 163.837V173.416H297.003V158.894H300.64L300.768 160.673C300.805 160.607 300.843 160.542 300.881 160.478C301.248 159.887 301.696 159.431 302.223 159.109C302.751 158.786 303.355 158.625 304.035 158.625C304.25 158.625 304.469 158.643 304.693 158.679C304.917 158.706 305.1 158.746 305.243 158.8L305.176 162.383C304.988 162.356 304.76 162.334 304.492 162.316C304.232 162.289 303.995 162.276 303.78 162.276C303.234 162.276 302.76 162.348 302.358 162.491C301.964 162.625 301.633 162.826 301.364 163.095C301.16 163.306 300.995 163.554 300.868 163.837ZM327.267 173.416V170.275H318.181V164.893H325.912V161.833H318.181V157.028H327.254V153.874H318.181H316.866H314.155V173.416H316.866H318.181H327.267ZM334.891 163.309L332.488 158.894H328.354L332.461 165.994L328.167 173.416H332.3L334.917 168.745L337.534 173.416H341.668L337.373 165.994L341.48 158.894H337.36L334.891 163.309ZM347.225 172.154V178.999H343.359V158.894H346.943L347.087 160.323C347.48 159.839 347.937 159.452 348.459 159.162C349.112 158.804 349.877 158.625 350.754 158.625C351.676 158.625 352.486 158.8 353.184 159.149C353.89 159.498 354.481 159.999 354.955 160.652C355.438 161.305 355.801 162.084 356.042 162.987C356.293 163.891 356.418 164.893 356.418 165.994V166.275C356.418 167.331 356.293 168.311 356.042 169.215C355.801 170.118 355.443 170.906 354.969 171.577C354.494 172.239 353.904 172.758 353.197 173.134C352.499 173.501 351.694 173.684 350.781 173.684C349.895 173.684 349.126 173.505 348.473 173.147C348.004 172.89 347.587 172.559 347.225 172.154ZM347.225 169.159C347.429 169.591 347.72 169.941 348.097 170.208C348.526 170.512 349.09 170.664 349.788 170.664C350.298 170.664 350.727 170.552 351.076 170.329C351.425 170.096 351.707 169.778 351.922 169.376C352.146 168.973 352.302 168.508 352.392 167.98C352.49 167.452 352.539 166.884 352.539 166.275V165.994C352.539 165.376 352.486 164.808 352.378 164.289C352.28 163.761 352.119 163.3 351.895 162.907C351.68 162.513 351.394 162.209 351.036 161.994C350.687 161.77 350.262 161.659 349.761 161.659C349.233 161.659 348.781 161.744 348.406 161.914C348.039 162.084 347.739 162.33 347.506 162.652C347.4 162.799 347.306 162.958 347.225 163.131V169.159ZM362.471 173.147C363.366 173.505 364.377 173.684 365.504 173.684C366.444 173.684 367.28 173.559 368.014 173.308C368.748 173.049 369.374 172.718 369.893 172.315C370.421 171.912 370.837 171.492 371.141 171.053L369.262 169.013C368.824 169.568 368.3 169.984 367.692 170.262C367.092 170.53 366.444 170.664 365.746 170.664C365.182 170.664 364.677 170.566 364.229 170.369C363.791 170.172 363.415 169.895 363.102 169.537C362.798 169.179 362.56 168.754 362.39 168.262C362.296 167.973 362.229 167.669 362.19 167.349H371.463V165.739C371.463 164.674 371.324 163.708 371.047 162.84C370.77 161.963 370.358 161.211 369.812 160.585C369.275 159.959 368.609 159.475 367.813 159.135C367.016 158.795 366.104 158.625 365.075 158.625C364.019 158.625 363.07 158.809 362.229 159.176C361.388 159.534 360.673 160.048 360.082 160.719C359.5 161.39 359.053 162.182 358.74 163.095C358.427 164.007 358.27 165.014 358.27 166.114V166.651C358.27 167.618 358.436 168.53 358.767 169.389C359.098 170.239 359.572 170.986 360.189 171.631C360.816 172.275 361.576 172.78 362.471 173.147ZM362.237 164.772C362.258 164.626 362.282 164.482 362.31 164.343C362.426 163.797 362.596 163.323 362.82 162.92C363.053 162.518 363.352 162.204 363.719 161.981C364.086 161.757 364.524 161.645 365.034 161.645C365.634 161.645 366.126 161.77 366.511 162.021C366.895 162.271 367.182 162.611 367.37 163.041C367.567 163.462 367.665 163.94 367.665 164.477V164.772H362.237ZM377.529 163.837V173.416H373.664V158.894H377.301L377.43 160.673C377.466 160.607 377.504 160.542 377.543 160.478C377.91 159.887 378.357 159.431 378.885 159.109C379.413 158.786 380.017 158.625 380.697 158.625C380.912 158.625 381.131 158.643 381.355 158.679C381.578 158.706 381.762 158.746 381.905 158.8L381.838 162.383C381.65 162.356 381.422 162.334 381.153 162.316C380.894 162.289 380.657 162.276 380.442 162.276C379.896 162.276 379.422 162.348 379.019 162.491C378.626 162.625 378.294 162.826 378.026 163.095C377.822 163.306 377.656 163.554 377.529 163.837ZM387.81 173.416V158.894H383.931V173.416H387.81ZM384.28 153.713C383.887 154.08 383.69 154.545 383.69 155.109C383.69 155.673 383.887 156.138 384.28 156.505C384.674 156.872 385.202 157.055 385.864 157.055C386.517 157.055 387.041 156.872 387.434 156.505C387.837 156.138 388.038 155.673 388.038 155.109C388.038 154.545 387.837 154.08 387.434 153.713C387.041 153.346 386.517 153.163 385.864 153.163C385.202 153.163 384.674 153.346 384.28 153.713ZM394.655 173.147C395.55 173.505 396.561 173.684 397.688 173.684C398.628 173.684 399.464 173.559 400.198 173.308C400.931 173.049 401.558 172.718 402.077 172.315C402.605 171.912 403.021 171.492 403.325 171.053L401.446 169.013C401.008 169.568 400.484 169.984 399.876 170.262C399.276 170.53 398.628 170.664 397.93 170.664C397.366 170.664 396.86 170.566 396.413 170.369C395.975 170.172 395.599 169.895 395.286 169.537C394.981 169.179 394.744 168.754 394.574 168.262C394.48 167.973 394.413 167.669 394.374 167.349H403.647V165.739C403.647 164.674 403.508 163.708 403.231 162.84C402.954 161.963 402.542 161.211 401.996 160.585C401.459 159.959 400.793 159.475 399.996 159.135C399.2 158.795 398.288 158.625 397.259 158.625C396.203 158.625 395.254 158.809 394.413 159.176C393.572 159.534 392.856 160.048 392.266 160.719C391.684 161.39 391.237 162.182 390.924 163.095C390.611 164.007 390.454 165.014 390.454 166.114V166.651C390.454 167.618 390.62 168.53 390.951 169.389C391.282 170.239 391.756 170.986 392.373 171.631C393 172.275 393.76 172.78 394.655 173.147ZM394.421 164.772C394.442 164.626 394.466 164.482 394.494 164.343C394.61 163.797 394.78 163.323 395.004 162.92C395.236 162.518 395.536 162.204 395.903 161.981C396.27 161.757 396.708 161.645 397.218 161.645C397.818 161.645 398.31 161.77 398.695 162.021C399.079 162.271 399.366 162.611 399.554 163.041C399.75 163.462 399.849 163.94 399.849 164.477V164.772H394.421ZM409.633 163.114V173.416H405.768V158.894H409.391L409.527 160.63C409.553 160.597 409.579 160.564 409.606 160.531C410.107 159.914 410.702 159.444 411.391 159.122C412.089 158.791 412.867 158.625 413.726 158.625C414.406 158.625 415.028 158.724 415.592 158.921C416.156 159.118 416.639 159.431 417.041 159.86C417.453 160.29 417.766 160.858 417.981 161.565C418.204 162.271 418.316 163.135 418.316 164.155V173.416H414.424V164.142C414.424 163.497 414.335 162.996 414.156 162.638C413.977 162.28 413.713 162.03 413.364 161.887C413.024 161.735 412.603 161.659 412.102 161.659C411.583 161.659 411.132 161.761 410.747 161.967C410.371 162.173 410.058 162.459 409.807 162.826C409.745 162.918 409.687 163.014 409.633 163.114ZM428.516 170.396C428.15 170.575 427.729 170.664 427.255 170.664C426.682 170.664 426.217 170.548 425.859 170.315C425.501 170.083 425.219 169.765 425.013 169.362C424.817 168.96 424.682 168.499 424.611 167.98C424.539 167.461 424.503 166.92 424.503 166.356V165.967C424.503 165.403 424.539 164.866 424.611 164.356C424.691 163.837 424.83 163.377 425.027 162.974C425.224 162.562 425.501 162.24 425.859 162.008C426.217 161.766 426.678 161.645 427.241 161.645C427.769 161.645 428.212 161.766 428.57 162.008C428.937 162.24 429.214 162.553 429.402 162.947C429.599 163.341 429.702 163.779 429.711 164.262H433.348C433.339 163.108 433.075 162.11 432.556 161.269C432.046 160.419 431.339 159.766 430.436 159.31C429.541 158.854 428.499 158.625 427.309 158.625C426.19 158.625 425.215 158.813 424.383 159.189C423.551 159.565 422.857 160.088 422.302 160.759C421.748 161.421 421.332 162.2 421.054 163.095C420.777 163.98 420.638 164.938 420.638 165.967V166.356C420.638 167.376 420.777 168.333 421.054 169.228C421.332 170.114 421.748 170.892 422.302 171.563C422.857 172.226 423.551 172.744 424.383 173.12C425.224 173.496 426.208 173.684 427.335 173.684C428.454 173.684 429.465 173.46 430.369 173.013C431.272 172.557 431.992 171.935 432.529 171.147C433.066 170.351 433.339 169.443 433.348 168.423H429.711C429.702 168.879 429.59 169.277 429.375 169.617C429.17 169.948 428.883 170.208 428.516 170.396ZM439.24 173.147C440.135 173.505 441.146 173.684 442.273 173.684C443.213 173.684 444.049 173.559 444.783 173.308C445.517 173.049 446.143 172.718 446.662 172.315C447.19 171.912 447.606 171.492 447.91 171.053L446.031 169.013C445.593 169.568 445.069 169.984 444.461 170.262C443.861 170.53 443.213 170.664 442.515 170.664C441.951 170.664 441.445 170.566 440.998 170.369C440.56 170.172 440.184 169.895 439.871 169.537C439.566 169.179 439.329 168.754 439.159 168.262C439.065 167.973 438.998 167.669 438.959 167.349H448.232V165.739C448.232 164.674 448.093 163.708 447.816 162.84C447.539 161.963 447.127 161.211 446.581 160.585C446.044 159.959 445.378 159.475 444.582 159.135C443.785 158.795 442.873 158.625 441.844 158.625C440.788 158.625 439.839 158.809 438.998 159.176C438.157 159.534 437.441 160.048 436.851 160.719C436.269 161.39 435.822 162.182 435.509 163.095C435.196 164.007 435.039 165.014 435.039 166.114V166.651C435.039 167.618 435.205 168.53 435.536 169.389C435.867 170.239 436.341 170.986 436.958 171.631C437.585 172.275 438.345 172.78 439.24 173.147ZM439.006 164.772C439.027 164.626 439.051 164.482 439.079 164.343C439.195 163.797 439.365 163.323 439.589 162.92C439.821 162.518 440.121 162.204 440.488 161.981C440.855 161.757 441.293 161.645 441.803 161.645C442.403 161.645 442.895 161.77 443.28 162.021C443.664 162.271 443.951 162.611 444.139 163.041C444.335 163.462 444.434 163.94 444.434 164.477V164.772H439.006Z" fill="white"/>
</svg>
