<svg width="805" height="351" viewBox="0 0 805 351" fill="none" xmlns="http://www.w3.org/2000/svg">
<path d="M58.7303 49.1918L30.9059 134H8.49185L46.5045 31.6961H60.768L58.7303 49.1918ZM81.8471 134L53.9524 49.1918L51.704 31.6961H66.108L104.331 134H81.8471ZM80.5823 95.9171V112.429H26.5496V95.9171H80.5823ZM136.231 31.6961V134H115.222V31.6961H136.231ZM187.383 134H165.11L165.25 117.558H187.383C192.91 117.558 197.571 116.317 201.366 113.834C205.16 111.305 208.017 107.628 209.938 102.803C211.905 97.9782 212.889 92.1463 212.889 85.3073V80.3186C212.889 75.0722 212.327 70.4582 211.202 66.4766C210.125 62.495 208.509 59.1458 206.354 56.4289C204.2 53.7121 201.553 51.6744 198.414 50.316C195.276 48.9107 191.669 48.2081 187.594 48.2081H164.688V31.6961H187.594C194.433 31.6961 200.686 32.8672 206.354 35.2093C212.069 37.5046 217.011 40.807 221.18 45.1165C225.349 49.426 228.558 54.5787 230.806 60.5745C233.101 66.5235 234.249 73.1517 234.249 80.4591V85.3073C234.249 92.5679 233.101 99.1961 230.806 105.192C228.558 111.188 225.349 116.34 221.18 120.65C217.058 124.913 212.116 128.215 206.354 130.557C200.639 132.852 194.316 134 187.383 134ZM177.054 31.6961V134H155.975V31.6961H177.054ZM289.617 49.1918L261.792 134H239.378L277.391 31.6961H291.654L289.617 49.1918ZM312.733 134L284.839 49.1918L282.59 31.6961H296.994L335.218 134H312.733ZM311.469 95.9171V112.429H257.436V95.9171H311.469ZM427.966 31.6961V134H406.887L365.782 65.4227V134H344.703V31.6961H365.782L406.957 100.344V31.6961H427.966Z" fill="white"/>
<path d="M18.7604 192.696H36.6074L62.886 267.808L89.1646 192.696H107.012L70.0528 295H55.7191L18.7604 192.696ZM9.13427 192.696H26.911L30.1431 265.911V295H9.13427V192.696ZM98.8609 192.696H116.708V295H95.6288V265.911L98.8609 192.696ZM178.048 210.192L150.224 295H127.81L165.822 192.696H180.086L178.048 210.192ZM201.165 295L173.27 210.192L171.022 192.696H185.426L223.649 295H201.165ZM199.9 256.917V273.429H145.867V256.917H199.9ZM291.173 261.063H312.181C311.76 267.948 309.863 274.061 306.49 279.401C303.164 284.742 298.503 288.91 292.508 291.908C286.559 294.906 279.392 296.405 271.007 296.405C264.449 296.405 258.57 295.281 253.371 293.033C248.171 290.737 243.721 287.458 240.021 283.196C236.367 278.933 233.58 273.78 231.659 267.738C229.739 261.695 228.778 254.926 228.778 247.432V240.335C228.778 232.84 229.762 226.071 231.729 220.029C233.744 213.939 236.601 208.763 240.302 204.5C244.049 200.238 248.522 196.959 253.722 194.664C258.922 192.368 264.73 191.221 271.147 191.221C279.673 191.221 286.863 192.766 292.718 195.858C298.62 198.95 303.188 203.212 306.42 208.646C309.699 214.08 311.666 220.263 312.322 227.196H291.243C291.009 223.073 290.189 219.584 288.784 216.726C287.378 213.822 285.247 211.644 282.39 210.192C279.579 208.693 275.832 207.943 271.147 207.943C267.634 207.943 264.566 208.599 261.943 209.911C259.32 211.222 257.118 213.213 255.338 215.883C253.558 218.553 252.223 221.926 251.333 226.001C250.49 230.03 250.068 234.761 250.068 240.194V247.432C250.068 252.725 250.466 257.386 251.263 261.414C252.059 265.396 253.277 268.768 254.916 271.532C256.603 274.249 258.758 276.31 261.381 277.715C264.051 279.074 267.259 279.753 271.007 279.753C275.41 279.753 279.04 279.05 281.898 277.645C284.755 276.24 286.933 274.155 288.432 271.391C289.978 268.628 290.891 265.185 291.173 261.063ZM347.102 192.696V295H326.023V192.696H347.102ZM408.372 192.696L367.83 243.216L344.432 268.37L340.638 248.415L356.447 226.774L382.515 192.696H408.372ZM384.412 295L354.269 247.713L369.868 234.644L409.356 295H384.412ZM486.154 278.558V295H431.7V278.558H486.154ZM438.586 192.696V295H417.507V192.696H438.586ZM479.057 234.362V250.383H431.7V234.362H479.057ZM486.084 192.696V209.208H431.7V192.696H486.084ZM581.713 192.696V295H560.634L519.529 226.423V295H498.45V192.696H519.529L560.704 261.344V192.696H581.713ZM674.039 278.558V295H601.527V278.558H674.039ZM672.985 204.43L610.872 295H596.046V282.915L658.651 192.696H672.985V204.43ZM665.748 192.696V209.208H596.117V192.696H665.748ZM709.874 192.696V295H688.865V192.696H709.874ZM798.265 278.558V295H743.811V278.558H798.265ZM750.697 192.696V295H729.618V192.696H750.697ZM791.169 234.362V250.383H743.811V234.362H791.169ZM798.195 192.696V209.208H743.811V192.696H798.195Z" fill="white"/>
<path fill-rule="evenodd" clip-rule="evenodd" d="M491.16 146.049H7.87231V178.836H511.331L491.16 146.049ZM23.3992 172.416H25.3721C26.6963 172.416 27.9042 172.196 28.9958 171.758C30.0963 171.311 31.0403 170.68 31.8276 169.866C32.624 169.042 33.2369 168.058 33.6663 166.913C34.1048 165.768 34.324 164.502 34.324 163.115V162.189C34.324 160.793 34.1048 159.527 33.6663 158.39C33.2369 157.245 32.624 156.261 31.8276 155.438C31.0313 154.615 30.0874 153.984 28.9958 153.545C27.9131 153.098 26.7187 152.874 25.4123 152.874H23.3992H21.037H19.3728V172.416H21.1176H23.3992ZM23.3992 169.275H25.3721C26.4279 169.275 27.3181 169.038 28.0429 168.564C28.7676 168.08 29.3134 167.378 29.6803 166.457C30.0561 165.535 30.2439 164.421 30.2439 163.115V162.162C30.2439 161.16 30.1366 160.278 29.9218 159.518C29.7161 158.757 29.4074 158.118 28.9958 157.599C28.5842 157.08 28.0787 156.69 27.4792 156.431C26.8797 156.163 26.1908 156.028 25.4123 156.028H23.3992V169.275ZM41.0882 172.416V157.894H37.2095V172.416H41.0882ZM37.5585 152.713C37.1648 153.08 36.9679 153.545 36.9679 154.109C36.9679 154.673 37.1648 155.138 37.5585 155.505C37.9522 155.872 38.4801 156.055 39.1422 156.055C39.7953 156.055 40.3188 155.872 40.7124 155.505C41.1151 155.138 41.3164 154.673 41.3164 154.109C41.3164 153.545 41.1151 153.08 40.7124 152.713C40.3188 152.346 39.7953 152.163 39.1422 152.163C38.4801 152.163 37.9522 152.346 37.5585 152.713ZM56.9789 157.894H53.476L53.322 159.268C52.9555 158.808 52.5192 158.44 52.013 158.162C51.3599 157.804 50.5501 157.625 49.5838 157.625C48.6712 157.625 47.8525 157.804 47.1278 158.162C46.403 158.52 45.7856 159.026 45.2756 159.679C44.7746 160.332 44.3854 161.115 44.108 162.028C43.8396 162.931 43.7054 163.938 43.7054 165.047V165.329C43.7054 166.385 43.8396 167.36 44.108 168.255C44.3854 169.15 44.779 169.928 45.2891 170.59C45.7991 171.252 46.412 171.767 47.1278 172.134C47.8525 172.501 48.6622 172.684 49.557 172.684C50.4517 172.684 51.2212 172.505 51.8654 172.147C52.3317 171.892 52.7433 171.563 53.1002 171.162V171.959C53.1002 172.648 52.9704 173.234 52.7109 173.717C52.4515 174.209 52.0802 174.581 51.597 174.831C51.1138 175.091 50.5233 175.221 49.8254 175.221C49.1096 175.221 48.4564 175.073 47.8659 174.778C47.2754 174.491 46.7564 174.089 46.3091 173.57L44.6046 175.851C45.0162 176.37 45.5262 176.8 46.1346 177.14C46.752 177.48 47.3962 177.73 48.0672 177.891C48.7472 178.052 49.3914 178.133 49.9999 178.133C51.3867 178.133 52.6036 177.891 53.6504 177.408C54.6973 176.934 55.5115 176.232 56.0931 175.301C56.6836 174.379 56.9789 173.257 56.9789 171.932V157.894ZM53.1002 162.031V168.297C52.8886 168.662 52.6112 168.961 52.268 169.194C51.8207 169.49 51.2436 169.637 50.5367 169.637C50.0267 169.637 49.5838 169.53 49.208 169.315C48.8412 169.092 48.5325 168.783 48.282 168.389C48.0404 167.987 47.8614 167.526 47.7451 167.007C47.6288 166.488 47.5706 165.929 47.5706 165.329V165.047C47.5706 164.43 47.6333 163.857 47.7585 163.329C47.8838 162.793 48.0672 162.327 48.3088 161.934C48.5593 161.54 48.868 161.231 49.2349 161.008C49.6107 160.775 50.0536 160.659 50.5636 160.659C51.0915 160.659 51.5478 160.748 51.9325 160.927C52.3173 161.106 52.6304 161.356 52.872 161.679C52.9543 161.788 53.0303 161.906 53.1002 162.031ZM64.0652 172.416V157.894H60.1865V172.416H64.0652ZM60.5355 152.713C60.1418 153.08 59.9449 153.545 59.9449 154.109C59.9449 154.673 60.1418 155.138 60.5355 155.505C60.9292 155.872 61.4571 156.055 62.1192 156.055C62.7723 156.055 63.2958 155.872 63.6894 155.505C64.0921 155.138 64.2934 154.673 64.2934 154.109C64.2934 153.545 64.0921 153.08 63.6894 152.713C63.2958 152.346 62.7723 152.163 62.1192 152.163C61.4571 152.163 60.9292 152.346 60.5355 152.713ZM74.3727 160.632V157.894H71.8763V154.31H68.0111V157.894H65.9174V160.632H68.0111V168.429C68.0111 169.449 68.1811 170.273 68.5211 170.899C68.8611 171.525 69.3442 171.982 69.9705 172.268C70.6058 172.545 71.3484 172.684 72.1984 172.684C72.6637 172.684 73.0887 172.653 73.4735 172.59C73.8582 172.527 74.2161 172.442 74.5471 172.335L74.5337 169.49C74.3995 169.517 74.234 169.543 74.0371 169.57C73.8493 169.588 73.6345 169.597 73.3929 169.597C73.0529 169.597 72.7711 169.557 72.5474 169.476C72.3237 169.387 72.1537 169.23 72.0374 169.007C71.93 168.783 71.8763 168.461 71.8763 168.04V160.632H74.3727ZM84.5655 171.052C84.4283 171.211 84.2786 171.366 84.1164 171.516C83.7406 171.856 83.2888 172.138 82.7609 172.362C82.233 172.577 81.6067 172.684 80.8819 172.684C79.9603 172.684 79.1238 172.501 78.3722 172.134C77.6295 171.758 77.039 171.243 76.6006 170.59C76.1711 169.928 75.9564 169.177 75.9564 168.335C75.9564 167.575 76.0995 166.899 76.3858 166.309C76.6722 165.718 77.0927 165.222 77.6474 164.819C78.2111 164.408 78.9135 164.099 79.7546 163.893C80.5956 163.678 81.5709 163.571 82.6804 163.571H84.4117V162.672C84.4117 162.207 84.3356 161.808 84.1835 161.477C84.0314 161.137 83.7943 160.873 83.4722 160.685C83.159 160.498 82.7519 160.404 82.2509 160.404C81.8214 160.404 81.4501 160.48 81.1369 160.632C80.8238 160.775 80.5822 160.985 80.4122 161.263C80.2422 161.531 80.1572 161.849 80.1572 162.215H76.2919C76.2919 161.598 76.4351 161.012 76.7214 160.457C77.0077 159.903 77.4237 159.415 77.9695 158.994C78.5153 158.565 79.164 158.229 79.9156 157.988C80.6761 157.746 81.5261 157.625 82.4656 157.625C83.593 157.625 84.5951 157.813 85.472 158.189C86.3488 158.565 87.0378 159.129 87.5388 159.88C88.0488 160.632 88.3038 161.571 88.3038 162.699V168.913C88.3038 169.709 88.353 170.362 88.4515 170.872C88.5499 171.373 88.693 171.812 88.8809 172.187V172.416H84.9754C84.7996 172.047 84.6629 171.593 84.5655 171.052ZM84.4117 168.311C84.3625 168.403 84.3044 168.496 84.2372 168.59C84.0046 168.93 83.6735 169.217 83.244 169.449C82.8146 169.682 82.309 169.798 81.7275 169.798C81.3427 169.798 81.0072 169.727 80.7209 169.584C80.4346 169.432 80.2153 169.226 80.0632 168.966C79.9111 168.698 79.8351 168.398 79.8351 168.067C79.8351 167.736 79.8888 167.432 79.9961 167.154C80.1124 166.877 80.2914 166.635 80.533 166.43C80.7746 166.215 81.0832 166.049 81.459 165.933C81.8348 165.817 82.2777 165.759 82.7877 165.759H84.4117V168.311ZM95.3633 172.416V151.801H91.4846V172.416H95.3633ZM109.67 172.416H111.643C112.967 172.416 114.175 172.196 115.267 171.758C116.367 171.311 117.311 170.68 118.099 169.866C118.895 169.042 119.508 168.058 119.937 166.913C120.376 165.768 120.595 164.502 120.595 163.115V162.189C120.595 160.793 120.376 159.527 119.937 158.39C119.508 157.245 118.895 156.261 118.099 155.438C117.302 154.615 116.358 153.984 115.267 153.545C114.184 153.098 112.99 152.874 111.683 152.874H109.67H107.308H105.644V172.416H107.389H109.67ZM109.67 169.275H111.643C112.699 169.275 113.589 169.038 114.314 168.564C115.039 168.08 115.585 167.378 115.951 166.457C116.327 165.535 116.515 164.421 116.515 163.115V162.162C116.515 161.16 116.408 160.278 116.193 159.518C115.987 158.757 115.678 158.118 115.267 157.599C114.855 157.08 114.35 156.69 113.75 156.431C113.151 156.163 112.462 156.028 111.683 156.028H109.67V169.275ZM126.93 172.147C127.825 172.505 128.836 172.684 129.963 172.684C130.903 172.684 131.739 172.559 132.473 172.308C133.206 172.049 133.833 171.718 134.352 171.315C134.88 170.912 135.296 170.492 135.6 170.053L133.721 168.013C133.283 168.568 132.759 168.984 132.151 169.262C131.551 169.53 130.903 169.664 130.205 169.664C129.641 169.664 129.135 169.566 128.688 169.369C128.25 169.172 127.874 168.895 127.561 168.537C127.256 168.179 127.019 167.754 126.849 167.262C126.755 166.973 126.688 166.669 126.649 166.349H135.922V164.739C135.922 163.674 135.783 162.708 135.506 161.84C135.229 160.963 134.817 160.211 134.271 159.585C133.734 158.959 133.068 158.475 132.271 158.135C131.475 157.795 130.563 157.625 129.534 157.625C128.478 157.625 127.529 157.809 126.688 158.176C125.847 158.534 125.131 159.048 124.541 159.719C123.959 160.39 123.512 161.182 123.199 162.095C122.886 163.007 122.729 164.014 122.729 165.114V165.651C122.729 166.618 122.895 167.53 123.226 168.389C123.557 169.239 124.031 169.986 124.648 170.631C125.275 171.275 126.035 171.78 126.93 172.147ZM126.696 163.772C126.717 163.626 126.741 163.482 126.769 163.343C126.885 162.797 127.055 162.323 127.279 161.92C127.511 161.518 127.811 161.204 128.178 160.981C128.545 160.757 128.983 160.645 129.493 160.645C130.093 160.645 130.585 160.77 130.97 161.021C131.354 161.271 131.641 161.611 131.829 162.041C132.025 162.462 132.124 162.94 132.124 163.477V163.772H126.696ZM145.733 167.651C145.894 167.875 145.974 168.125 145.974 168.403C145.974 168.716 145.885 168.993 145.706 169.235C145.536 169.467 145.286 169.655 144.954 169.798C144.623 169.933 144.207 170 143.706 170C143.241 170 142.807 169.928 142.404 169.785C142.011 169.642 141.684 169.409 141.425 169.087C141.174 168.765 141.04 168.34 141.022 167.812H137.358C137.358 168.599 137.595 169.369 138.069 170.121C138.553 170.863 139.259 171.476 140.19 171.959C141.129 172.442 142.275 172.684 143.626 172.684C144.556 172.684 145.393 172.577 146.136 172.362C146.887 172.138 147.531 171.829 148.068 171.436C148.605 171.033 149.017 170.563 149.303 170.027C149.589 169.49 149.732 168.899 149.732 168.255C149.732 167.307 149.491 166.542 149.008 165.96C148.524 165.369 147.871 164.904 147.048 164.564C146.225 164.215 145.29 163.933 144.243 163.719C143.733 163.62 143.304 163.513 142.955 163.397C142.615 163.271 142.337 163.137 142.123 162.994C141.908 162.851 141.751 162.694 141.653 162.524C141.563 162.345 141.519 162.144 141.519 161.92C141.519 161.625 141.599 161.356 141.76 161.115C141.93 160.864 142.172 160.668 142.485 160.524C142.798 160.372 143.169 160.296 143.599 160.296C144.118 160.296 144.538 160.386 144.861 160.565C145.192 160.735 145.433 160.972 145.585 161.276C145.746 161.571 145.827 161.907 145.827 162.283H149.692C149.692 161.388 149.446 160.591 148.954 159.894C148.471 159.187 147.773 158.632 146.86 158.229C145.957 157.827 144.874 157.625 143.612 157.625C142.709 157.625 141.894 157.746 141.17 157.988C140.454 158.22 139.845 158.547 139.344 158.968C138.852 159.379 138.472 159.853 138.204 160.39C137.944 160.927 137.814 161.5 137.814 162.108C137.814 162.725 137.944 163.276 138.204 163.759C138.463 164.233 138.821 164.645 139.277 164.994C139.743 165.343 140.288 165.642 140.915 165.893C141.55 166.134 142.234 166.336 142.968 166.497C143.782 166.658 144.404 166.837 144.834 167.034C145.272 167.222 145.572 167.427 145.733 167.651ZM156.322 172.416V157.894H152.443V172.416H156.322ZM152.792 152.713C152.399 153.08 152.202 153.545 152.202 154.109C152.202 154.673 152.399 155.138 152.792 155.505C153.186 155.872 153.714 156.055 154.376 156.055C155.029 156.055 155.553 155.872 155.946 155.505C156.349 155.138 156.55 154.673 156.55 154.109C156.55 153.545 156.349 153.08 155.946 152.713C155.553 152.346 155.029 152.163 154.376 152.163C153.714 152.163 153.186 152.346 152.792 152.713ZM172.213 157.894H168.71L168.556 159.268C168.189 158.808 167.753 158.44 167.247 158.162C166.594 157.804 165.784 157.625 164.818 157.625C163.905 157.625 163.086 157.804 162.362 158.162C161.637 158.52 161.02 159.026 160.51 159.679C160.009 160.332 159.619 161.115 159.342 162.028C159.074 162.931 158.939 163.938 158.939 165.047V165.329C158.939 166.385 159.074 167.36 159.342 168.255C159.619 169.15 160.013 169.928 160.523 170.59C161.033 171.252 161.646 171.767 162.362 172.134C163.086 172.501 163.896 172.684 164.791 172.684C165.686 172.684 166.455 172.505 167.099 172.147C167.566 171.892 167.977 171.563 168.334 171.162V171.959C168.334 172.648 168.204 173.234 167.945 173.717C167.685 174.209 167.314 174.581 166.831 174.831C166.348 175.091 165.757 175.221 165.059 175.221C164.344 175.221 163.69 175.073 163.1 174.778C162.509 174.491 161.99 174.089 161.543 173.57L159.839 175.851C160.25 176.37 160.76 176.8 161.369 177.14C161.986 177.48 162.63 177.73 163.301 177.891C163.981 178.052 164.625 178.133 165.234 178.133C166.621 178.133 167.838 177.891 168.884 177.408C169.931 176.934 170.745 176.232 171.327 175.301C171.918 174.379 172.213 173.257 172.213 171.932V157.894ZM168.334 162.031V168.297C168.123 168.662 167.845 168.961 167.502 169.194C167.055 169.49 166.478 169.637 165.771 169.637C165.261 169.637 164.818 169.53 164.442 169.315C164.075 169.092 163.766 168.783 163.516 168.389C163.274 167.987 163.095 167.526 162.979 167.007C162.863 166.488 162.805 165.929 162.805 165.329V165.047C162.805 164.43 162.867 163.857 162.992 163.329C163.118 162.793 163.301 162.327 163.543 161.934C163.793 161.54 164.102 161.231 164.469 161.008C164.845 160.775 165.287 160.659 165.798 160.659C166.325 160.659 166.782 160.748 167.166 160.927C167.551 161.106 167.864 161.356 168.106 161.679C168.188 161.788 168.264 161.906 168.334 162.031ZM179.004 162.114V172.416H175.139V157.894H178.762L178.898 159.63C178.924 159.597 178.95 159.564 178.977 159.531C179.478 158.914 180.073 158.444 180.762 158.122C181.46 157.791 182.238 157.625 183.097 157.625C183.777 157.625 184.399 157.724 184.963 157.921C185.527 158.118 186.01 158.431 186.412 158.86C186.824 159.29 187.137 159.858 187.352 160.565C187.576 161.271 187.687 162.135 187.687 163.155V172.416H183.795V163.142C183.795 162.497 183.706 161.996 183.527 161.638C183.348 161.28 183.084 161.03 182.735 160.887C182.395 160.735 181.974 160.659 181.473 160.659C180.954 160.659 180.503 160.761 180.118 160.967C179.742 161.173 179.429 161.459 179.178 161.826C179.116 161.918 179.058 162.014 179.004 162.114ZM205.463 171.052C205.326 171.211 205.176 171.366 205.014 171.516C204.638 171.856 204.186 172.138 203.659 172.362C203.131 172.577 202.504 172.684 201.78 172.684C200.858 172.684 200.021 172.501 199.27 172.134C198.527 171.758 197.937 171.243 197.498 170.59C197.069 169.928 196.854 169.177 196.854 168.335C196.854 167.575 196.997 166.899 197.284 166.309C197.57 165.718 197.99 165.222 198.545 164.819C199.109 164.408 199.811 164.099 200.652 163.893C201.493 163.678 202.469 163.571 203.578 163.571H205.309V162.672C205.309 162.207 205.233 161.808 205.081 161.477C204.929 161.137 204.692 160.873 204.37 160.685C204.057 160.498 203.65 160.404 203.149 160.404C202.719 160.404 202.348 160.48 202.035 160.632C201.721 160.775 201.48 160.985 201.31 161.263C201.14 161.531 201.055 161.849 201.055 162.215H197.19C197.19 161.598 197.333 161.012 197.619 160.457C197.905 159.903 198.321 159.415 198.867 158.994C199.413 158.565 200.062 158.229 200.813 157.988C201.574 157.746 202.424 157.625 203.363 157.625C204.491 157.625 205.493 157.813 206.37 158.189C207.246 158.565 207.935 159.129 208.436 159.88C208.946 160.632 209.201 161.571 209.201 162.699V168.913C209.201 169.709 209.251 170.362 209.349 170.872C209.448 171.373 209.591 171.812 209.779 172.187V172.416H205.873C205.697 172.047 205.561 171.593 205.463 171.052ZM205.309 168.311C205.26 168.403 205.202 168.496 205.135 168.59C204.902 168.93 204.571 169.217 204.142 169.449C203.712 169.682 203.207 169.798 202.625 169.798C202.24 169.798 201.905 169.727 201.619 169.584C201.332 169.432 201.113 169.226 200.961 168.966C200.809 168.698 200.733 168.398 200.733 168.067C200.733 167.736 200.786 167.432 200.894 167.154C201.01 166.877 201.189 166.635 201.431 166.43C201.672 166.215 201.981 166.049 202.357 165.933C202.732 165.817 203.175 165.759 203.685 165.759H205.309V168.311ZM215.966 162.114V172.416H212.1V157.894H215.724L215.859 159.63C215.886 159.597 215.912 159.564 215.939 159.531C216.44 158.914 217.035 158.444 217.724 158.122C218.422 157.791 219.2 157.625 220.059 157.625C220.739 157.625 221.361 157.724 221.925 157.921C222.488 158.118 222.972 158.431 223.374 158.86C223.786 159.29 224.099 159.858 224.314 160.565C224.537 161.271 224.649 162.135 224.649 163.155V172.416H220.757V163.142C220.757 162.497 220.668 161.996 220.489 161.638C220.31 161.28 220.046 161.03 219.697 160.887C219.357 160.735 218.936 160.659 218.435 160.659C217.916 160.659 217.464 160.761 217.08 160.967C216.704 161.173 216.391 161.459 216.14 161.826C216.078 161.918 216.02 162.014 215.966 162.114ZM236.364 170.867C235.949 171.405 235.457 171.832 234.89 172.147C234.245 172.505 233.494 172.684 232.635 172.684C231.731 172.684 230.926 172.501 230.219 172.134C229.521 171.767 228.931 171.252 228.447 170.59C227.973 169.928 227.611 169.15 227.36 168.255C227.11 167.36 226.985 166.385 226.985 165.329V165.047C226.985 163.938 227.11 162.931 227.36 162.028C227.611 161.115 227.978 160.332 228.461 159.679C228.944 159.026 229.539 158.52 230.246 158.162C230.953 157.804 231.758 157.625 232.662 157.625C233.512 157.625 234.254 157.804 234.89 158.162C235.369 158.429 235.794 158.779 236.165 159.214V151.801H240.057V172.416H236.554L236.364 170.867ZM236.165 162.226C236.069 162.026 235.957 161.844 235.829 161.679C235.587 161.356 235.283 161.106 234.916 160.927C234.559 160.748 234.133 160.659 233.641 160.659C233.14 160.659 232.711 160.775 232.353 161.008C231.995 161.231 231.704 161.54 231.481 161.934C231.266 162.327 231.105 162.793 230.997 163.329C230.899 163.857 230.85 164.43 230.85 165.047V165.329C230.85 165.929 230.895 166.488 230.984 167.007C231.082 167.526 231.239 167.987 231.454 168.389C231.677 168.783 231.964 169.092 232.313 169.315C232.671 169.53 233.105 169.637 233.615 169.637C234.277 169.637 234.822 169.49 235.252 169.194C235.64 168.919 235.944 168.553 236.165 168.095V162.226ZM264.966 152.874H260.953V165.785C260.953 166.662 260.815 167.378 260.537 167.933C260.269 168.488 259.875 168.895 259.356 169.154C258.846 169.414 258.224 169.543 257.491 169.543C256.775 169.543 256.153 169.414 255.625 169.154C255.106 168.895 254.708 168.488 254.431 167.933C254.153 167.378 254.015 166.662 254.015 165.785V152.874H249.988V165.785C249.988 167.289 250.306 168.555 250.941 169.584C251.585 170.613 252.471 171.387 253.599 171.906C254.735 172.424 256.032 172.684 257.491 172.684C258.949 172.684 260.238 172.424 261.356 171.906C262.483 171.387 263.365 170.613 264 169.584C264.644 168.555 264.966 167.289 264.966 165.785V152.874ZM275.65 167.651C275.811 167.875 275.891 168.125 275.891 168.403C275.891 168.716 275.802 168.993 275.623 169.235C275.453 169.467 275.202 169.655 274.871 169.798C274.54 169.933 274.124 170 273.623 170C273.158 170 272.724 169.928 272.321 169.785C271.927 169.642 271.601 169.409 271.341 169.087C271.091 168.765 270.957 168.34 270.939 167.812H267.275C267.275 168.599 267.512 169.369 267.986 170.121C268.469 170.863 269.176 171.476 270.107 171.959C271.046 172.442 272.191 172.684 273.542 172.684C274.473 172.684 275.31 172.577 276.052 172.362C276.804 172.138 277.448 171.829 277.985 171.436C278.522 171.033 278.933 170.563 279.22 170.027C279.506 169.49 279.649 168.899 279.649 168.255C279.649 167.307 279.408 166.542 278.924 165.96C278.441 165.369 277.788 164.904 276.965 164.564C276.142 164.215 275.207 163.933 274.16 163.719C273.65 163.62 273.22 163.513 272.871 163.397C272.531 163.271 272.254 163.137 272.039 162.994C271.825 162.851 271.668 162.694 271.57 162.524C271.48 162.345 271.435 162.144 271.435 161.92C271.435 161.625 271.516 161.356 271.677 161.115C271.847 160.864 272.089 160.668 272.402 160.524C272.715 160.372 273.086 160.296 273.516 160.296C274.035 160.296 274.455 160.386 274.777 160.565C275.108 160.735 275.35 160.972 275.502 161.276C275.663 161.571 275.744 161.907 275.744 162.283H279.609C279.609 161.388 279.363 160.591 278.871 159.894C278.387 159.187 277.69 158.632 276.777 158.229C275.873 157.827 274.791 157.625 273.529 157.625C272.625 157.625 271.811 157.746 271.086 157.988C270.371 158.22 269.762 158.547 269.261 158.968C268.769 159.379 268.389 159.853 268.12 160.39C267.861 160.927 267.731 161.5 267.731 162.108C267.731 162.725 267.861 163.276 268.12 163.759C268.38 164.233 268.738 164.645 269.194 164.994C269.659 165.343 270.205 165.642 270.831 165.893C271.467 166.134 272.151 166.336 272.885 166.497C273.699 166.658 274.321 166.837 274.75 167.034C275.189 167.222 275.489 167.427 275.65 167.651ZM285.809 172.147C286.704 172.505 287.715 172.684 288.843 172.684C289.782 172.684 290.619 172.559 291.352 172.308C292.086 172.049 292.712 171.718 293.231 171.315C293.759 170.912 294.175 170.492 294.479 170.053L292.6 168.013C292.162 168.568 291.639 168.984 291.03 169.262C290.431 169.53 289.782 169.664 289.084 169.664C288.52 169.664 288.015 169.566 287.568 169.369C287.129 169.172 286.753 168.895 286.44 168.537C286.136 168.179 285.899 167.754 285.729 167.262C285.634 166.973 285.568 166.669 285.529 166.349H294.802V164.739C294.802 163.674 294.663 162.708 294.385 161.84C294.108 160.963 293.697 160.211 293.151 159.585C292.614 158.959 291.947 158.475 291.151 158.135C290.355 157.795 289.442 157.625 288.413 157.625C287.357 157.625 286.409 157.809 285.568 158.176C284.727 158.534 284.011 159.048 283.42 159.719C282.839 160.39 282.391 161.182 282.078 162.095C281.765 163.007 281.609 164.014 281.609 165.114V165.651C281.609 166.618 281.774 167.53 282.105 168.389C282.436 169.239 282.91 169.986 283.528 170.631C284.154 171.275 284.915 171.78 285.809 172.147ZM285.575 163.772C285.596 163.626 285.62 163.482 285.648 163.343C285.765 162.797 285.935 162.323 286.158 161.92C286.391 161.518 286.691 161.204 287.058 160.981C287.424 160.757 287.863 160.645 288.373 160.645C288.972 160.645 289.464 160.77 289.849 161.021C290.234 161.271 290.52 161.611 290.708 162.041C290.905 162.462 291.003 162.94 291.003 163.477V163.772H285.575ZM300.868 162.837V172.416H297.003V157.894H300.64L300.768 159.673C300.805 159.607 300.843 159.542 300.881 159.478C301.248 158.887 301.696 158.431 302.223 158.109C302.751 157.786 303.355 157.625 304.035 157.625C304.25 157.625 304.469 157.643 304.693 157.679C304.917 157.706 305.1 157.746 305.243 157.8L305.176 161.383C304.988 161.356 304.76 161.334 304.492 161.316C304.232 161.289 303.995 161.276 303.78 161.276C303.234 161.276 302.76 161.348 302.358 161.491C301.964 161.625 301.633 161.826 301.364 162.095C301.16 162.306 300.995 162.554 300.868 162.837ZM327.267 172.416V169.275H318.181V163.893H325.912V160.833H318.181V156.028H327.254V152.874H318.181H316.866H314.155V172.416H316.866H318.181H327.267ZM334.891 162.309L332.488 157.894H328.354L332.461 164.994L328.167 172.416H332.3L334.917 167.745L337.534 172.416H341.668L337.373 164.994L341.48 157.894H337.36L334.891 162.309ZM347.225 171.154V177.999H343.359V157.894H346.943L347.087 159.323C347.48 158.839 347.937 158.452 348.459 158.162C349.112 157.804 349.877 157.625 350.754 157.625C351.676 157.625 352.486 157.8 353.184 158.149C353.89 158.498 354.481 158.999 354.955 159.652C355.438 160.305 355.801 161.084 356.042 161.987C356.293 162.891 356.418 163.893 356.418 164.994V165.275C356.418 166.331 356.293 167.311 356.042 168.215C355.801 169.118 355.443 169.906 354.969 170.577C354.494 171.239 353.904 171.758 353.197 172.134C352.499 172.501 351.694 172.684 350.781 172.684C349.895 172.684 349.126 172.505 348.473 172.147C348.004 171.89 347.587 171.559 347.225 171.154ZM347.225 168.159C347.429 168.591 347.72 168.941 348.097 169.208C348.526 169.512 349.09 169.664 349.788 169.664C350.298 169.664 350.727 169.552 351.076 169.329C351.425 169.096 351.707 168.778 351.922 168.376C352.146 167.973 352.302 167.508 352.392 166.98C352.49 166.452 352.539 165.884 352.539 165.275V164.994C352.539 164.376 352.486 163.808 352.378 163.289C352.28 162.761 352.119 162.3 351.895 161.907C351.68 161.513 351.394 161.209 351.036 160.994C350.687 160.77 350.262 160.659 349.761 160.659C349.233 160.659 348.781 160.744 348.406 160.914C348.039 161.084 347.739 161.33 347.506 161.652C347.4 161.799 347.306 161.958 347.225 162.131V168.159ZM362.471 172.147C363.366 172.505 364.377 172.684 365.504 172.684C366.444 172.684 367.28 172.559 368.014 172.308C368.748 172.049 369.374 171.718 369.893 171.315C370.421 170.912 370.837 170.492 371.141 170.053L369.262 168.013C368.824 168.568 368.3 168.984 367.692 169.262C367.092 169.53 366.444 169.664 365.746 169.664C365.182 169.664 364.677 169.566 364.229 169.369C363.791 169.172 363.415 168.895 363.102 168.537C362.798 168.179 362.56 167.754 362.39 167.262C362.296 166.973 362.229 166.669 362.19 166.349H371.463V164.739C371.463 163.674 371.324 162.708 371.047 161.84C370.77 160.963 370.358 160.211 369.812 159.585C369.275 158.959 368.609 158.475 367.813 158.135C367.016 157.795 366.104 157.625 365.075 157.625C364.019 157.625 363.07 157.809 362.229 158.176C361.388 158.534 360.673 159.048 360.082 159.719C359.5 160.39 359.053 161.182 358.74 162.095C358.427 163.007 358.27 164.014 358.27 165.114V165.651C358.27 166.618 358.436 167.53 358.767 168.389C359.098 169.239 359.572 169.986 360.189 170.631C360.816 171.275 361.576 171.78 362.471 172.147ZM362.237 163.772C362.258 163.626 362.282 163.482 362.31 163.343C362.426 162.797 362.596 162.323 362.82 161.92C363.053 161.518 363.352 161.204 363.719 160.981C364.086 160.757 364.524 160.645 365.034 160.645C365.634 160.645 366.126 160.77 366.511 161.021C366.895 161.271 367.182 161.611 367.37 162.041C367.567 162.462 367.665 162.94 367.665 163.477V163.772H362.237ZM377.529 162.837V172.416H373.664V157.894H377.301L377.43 159.673C377.466 159.607 377.504 159.542 377.543 159.478C377.91 158.887 378.357 158.431 378.885 158.109C379.413 157.786 380.017 157.625 380.697 157.625C380.912 157.625 381.131 157.643 381.355 157.679C381.578 157.706 381.762 157.746 381.905 157.8L381.838 161.383C381.65 161.356 381.422 161.334 381.153 161.316C380.894 161.289 380.657 161.276 380.442 161.276C379.896 161.276 379.422 161.348 379.019 161.491C378.626 161.625 378.294 161.826 378.026 162.095C377.822 162.306 377.656 162.554 377.529 162.837ZM387.81 172.416V157.894H383.931V172.416H387.81ZM384.28 152.713C383.887 153.08 383.69 153.545 383.69 154.109C383.69 154.673 383.887 155.138 384.28 155.505C384.674 155.872 385.202 156.055 385.864 156.055C386.517 156.055 387.041 155.872 387.434 155.505C387.837 155.138 388.038 154.673 388.038 154.109C388.038 153.545 387.837 153.08 387.434 152.713C387.041 152.346 386.517 152.163 385.864 152.163C385.202 152.163 384.674 152.346 384.28 152.713ZM394.655 172.147C395.55 172.505 396.561 172.684 397.688 172.684C398.628 172.684 399.464 172.559 400.198 172.308C400.931 172.049 401.558 171.718 402.077 171.315C402.605 170.912 403.021 170.492 403.325 170.053L401.446 168.013C401.008 168.568 400.484 168.984 399.876 169.262C399.276 169.53 398.628 169.664 397.93 169.664C397.366 169.664 396.86 169.566 396.413 169.369C395.975 169.172 395.599 168.895 395.286 168.537C394.981 168.179 394.744 167.754 394.574 167.262C394.48 166.973 394.413 166.669 394.374 166.349H403.647V164.739C403.647 163.674 403.508 162.708 403.231 161.84C402.954 160.963 402.542 160.211 401.996 159.585C401.459 158.959 400.793 158.475 399.996 158.135C399.2 157.795 398.288 157.625 397.259 157.625C396.203 157.625 395.254 157.809 394.413 158.176C393.572 158.534 392.856 159.048 392.266 159.719C391.684 160.39 391.237 161.182 390.924 162.095C390.611 163.007 390.454 164.014 390.454 165.114V165.651C390.454 166.618 390.62 167.53 390.951 168.389C391.282 169.239 391.756 169.986 392.373 170.631C393 171.275 393.76 171.78 394.655 172.147ZM394.421 163.772C394.442 163.626 394.466 163.482 394.494 163.343C394.61 162.797 394.78 162.323 395.004 161.92C395.236 161.518 395.536 161.204 395.903 160.981C396.27 160.757 396.708 160.645 397.218 160.645C397.818 160.645 398.31 160.77 398.695 161.021C399.079 161.271 399.366 161.611 399.554 162.041C399.75 162.462 399.849 162.94 399.849 163.477V163.772H394.421ZM409.633 162.114V172.416H405.768V157.894H409.391L409.527 159.63C409.553 159.597 409.579 159.564 409.606 159.531C410.107 158.914 410.702 158.444 411.391 158.122C412.089 157.791 412.867 157.625 413.726 157.625C414.406 157.625 415.028 157.724 415.592 157.921C416.156 158.118 416.639 158.431 417.041 158.86C417.453 159.29 417.766 159.858 417.981 160.565C418.204 161.271 418.316 162.135 418.316 163.155V172.416H414.424V163.142C414.424 162.497 414.335 161.996 414.156 161.638C413.977 161.28 413.713 161.03 413.364 160.887C413.024 160.735 412.603 160.659 412.102 160.659C411.583 160.659 411.132 160.761 410.747 160.967C410.371 161.173 410.058 161.459 409.807 161.826C409.745 161.918 409.687 162.014 409.633 162.114ZM428.516 169.396C428.15 169.575 427.729 169.664 427.255 169.664C426.682 169.664 426.217 169.548 425.859 169.315C425.501 169.083 425.219 168.765 425.013 168.362C424.817 167.96 424.682 167.499 424.611 166.98C424.539 166.461 424.503 165.92 424.503 165.356V164.967C424.503 164.403 424.539 163.866 424.611 163.356C424.691 162.837 424.83 162.377 425.027 161.974C425.224 161.562 425.501 161.24 425.859 161.008C426.217 160.766 426.678 160.645 427.241 160.645C427.769 160.645 428.212 160.766 428.57 161.008C428.937 161.24 429.214 161.553 429.402 161.947C429.599 162.341 429.702 162.779 429.711 163.262H433.348C433.339 162.108 433.075 161.11 432.556 160.269C432.046 159.419 431.339 158.766 430.436 158.31C429.541 157.854 428.499 157.625 427.309 157.625C426.19 157.625 425.215 157.813 424.383 158.189C423.551 158.565 422.857 159.088 422.302 159.759C421.748 160.421 421.332 161.2 421.054 162.095C420.777 162.98 420.638 163.938 420.638 164.967V165.356C420.638 166.376 420.777 167.333 421.054 168.228C421.332 169.114 421.748 169.892 422.302 170.563C422.857 171.226 423.551 171.744 424.383 172.12C425.224 172.496 426.208 172.684 427.335 172.684C428.454 172.684 429.465 172.46 430.369 172.013C431.272 171.557 431.992 170.935 432.529 170.147C433.066 169.351 433.339 168.443 433.348 167.423H429.711C429.702 167.879 429.59 168.277 429.375 168.617C429.17 168.948 428.883 169.208 428.516 169.396ZM439.24 172.147C440.135 172.505 441.146 172.684 442.273 172.684C443.213 172.684 444.049 172.559 444.783 172.308C445.517 172.049 446.143 171.718 446.662 171.315C447.19 170.912 447.606 170.492 447.91 170.053L446.031 168.013C445.593 168.568 445.069 168.984 444.461 169.262C443.861 169.53 443.213 169.664 442.515 169.664C441.951 169.664 441.445 169.566 440.998 169.369C440.56 169.172 440.184 168.895 439.871 168.537C439.566 168.179 439.329 167.754 439.159 167.262C439.065 166.973 438.998 166.669 438.959 166.349H448.232V164.739C448.232 163.674 448.093 162.708 447.816 161.84C447.539 160.963 447.127 160.211 446.581 159.585C446.044 158.959 445.378 158.475 444.582 158.135C443.785 157.795 442.873 157.625 441.844 157.625C440.788 157.625 439.839 157.809 438.998 158.176C438.157 158.534 437.441 159.048 436.851 159.719C436.269 160.39 435.822 161.182 435.509 162.095C435.196 163.007 435.039 164.014 435.039 165.114V165.651C435.039 166.618 435.205 167.53 435.536 168.389C435.867 169.239 436.341 169.986 436.958 170.631C437.585 171.275 438.345 171.78 439.24 172.147ZM439.006 163.772C439.027 163.626 439.051 163.482 439.079 163.343C439.195 162.797 439.365 162.323 439.589 161.92C439.821 161.518 440.121 161.204 440.488 160.981C440.855 160.757 441.293 160.645 441.803 160.645C442.403 160.645 442.895 160.77 443.28 161.021C443.664 161.271 443.951 161.611 444.139 162.041C444.335 162.462 444.434 162.94 444.434 163.477V163.772H439.006Z" fill="white"/>
</svg>
