<svg width="505" height="33" viewBox="0 0 505 33" fill="none" xmlns="http://www.w3.org/2000/svg">
<path fill-rule="evenodd" clip-rule="evenodd" d="M484.16 0.0493774H0.872314V32.8365H504.331L484.16 0.0493774ZM16.3992 26.4155H18.3721C19.6963 26.4155 20.9042 26.1963 21.9958 25.7579C23.0963 25.3105 24.0403 24.6797 24.8276 23.8655C25.624 23.0423 26.2369 22.0581 26.6663 20.9128C27.1048 19.7676 27.324 18.5015 27.324 17.1147V16.1886C27.324 14.7928 27.1048 13.5267 26.6663 12.3904C26.2369 11.2452 25.624 10.2609 24.8276 9.43777C24.0313 8.61461 23.0874 7.98381 21.9958 7.54539C20.9131 7.09802 19.7187 6.87433 18.4123 6.87433H16.3992H14.037H12.3728V26.4155H14.1176H16.3992ZM16.3992 23.275H18.3721C19.4279 23.275 20.3181 23.0379 21.0429 22.5637C21.7676 22.0805 22.3134 21.3781 22.6803 20.4565C23.0561 19.5349 23.2439 18.421 23.2439 17.1147V16.1618C23.2439 15.1597 23.1366 14.2783 22.9218 13.5178C22.7161 12.7573 22.4074 12.1175 21.9958 11.5986C21.5842 11.0796 21.0787 10.6904 20.4792 10.4309C19.8797 10.1625 19.1908 10.0283 18.4123 10.0283H16.3992V23.275ZM34.0882 26.4155V11.8938H30.2095V26.4155H34.0882ZM30.5585 6.71328C30.1648 7.08012 29.9679 7.54539 29.9679 8.10908C29.9679 8.67277 30.1648 9.13803 30.5585 9.50488C30.9522 9.87172 31.4801 10.0551 32.1422 10.0551C32.7953 10.0551 33.3188 9.87172 33.7124 9.50488C34.1151 9.13803 34.3164 8.67277 34.3164 8.10908C34.3164 7.54539 34.1151 7.08012 33.7124 6.71328C33.3188 6.34643 32.7953 6.16301 32.1422 6.16301C31.4801 6.16301 30.9522 6.34643 30.5585 6.71328ZM49.9789 11.8938H46.476L46.322 13.2684C45.9555 12.8083 45.5192 12.4396 45.013 12.1623C44.3599 11.8044 43.5501 11.6254 42.5838 11.6254C41.6712 11.6254 40.8525 11.8044 40.1278 12.1623C39.403 12.5202 38.7856 13.0257 38.2756 13.6789C37.7746 14.332 37.3854 15.1149 37.108 16.0276C36.8396 16.9312 36.7054 17.9378 36.7054 19.0473V19.3292C36.7054 20.385 36.8396 21.3602 37.108 22.255C37.3854 23.1497 37.779 23.9281 38.2891 24.5902C38.7991 25.2524 39.412 25.7668 40.1278 26.1337C40.8525 26.5005 41.6622 26.6839 42.557 26.6839C43.4517 26.6839 44.2212 26.505 44.8654 26.1471C45.3317 25.8916 45.7433 25.5631 46.1002 25.1617V25.9592C46.1002 26.6482 45.9704 27.2342 45.7109 27.7174C45.4515 28.2095 45.0802 28.5808 44.597 28.8313C44.1138 29.0908 43.5233 29.2205 42.8254 29.2205C42.1096 29.2205 41.4564 29.0729 40.8659 28.7776C40.2754 28.4913 39.7564 28.0887 39.3091 27.5697L37.6046 29.8513C38.0162 30.3703 38.5262 30.7998 39.1346 31.1398C39.752 31.4798 40.3962 31.7303 41.0672 31.8913C41.7472 32.0524 42.3914 32.1329 42.9999 32.1329C44.3867 32.1329 45.6036 31.8913 46.6504 31.4082C47.6973 30.934 48.5115 30.2316 49.0931 29.3011C49.6836 28.3795 49.9789 27.2566 49.9789 25.9324V11.8938ZM46.1002 16.0311V22.2969C45.8886 22.6619 45.6112 22.9611 45.268 23.1944C44.8207 23.4897 44.2436 23.6373 43.5367 23.6373C43.0267 23.6373 42.5838 23.53 42.208 23.3152C41.8412 23.0915 41.5325 22.7829 41.282 22.3892C41.0404 21.9865 40.8614 21.5257 40.7451 21.0068C40.6288 20.4878 40.5706 19.9286 40.5706 19.3292V19.0473C40.5706 18.4299 40.6333 17.8573 40.7585 17.3294C40.8838 16.7926 41.0672 16.3273 41.3088 15.9336C41.5593 15.5399 41.868 15.2312 42.2349 15.0075C42.6107 14.7749 43.0536 14.6586 43.5636 14.6586C44.0915 14.6586 44.5478 14.7481 44.9325 14.927C45.3173 15.106 45.6304 15.3565 45.872 15.6786C45.9543 15.7883 46.0303 15.9058 46.1002 16.0311ZM57.0652 26.4155V11.8938H53.1865V26.4155H57.0652ZM53.5355 6.71328C53.1418 7.08012 52.9449 7.54539 52.9449 8.10908C52.9449 8.67277 53.1418 9.13803 53.5355 9.50488C53.9292 9.87172 54.4571 10.0551 55.1192 10.0551C55.7723 10.0551 56.2958 9.87172 56.6894 9.50488C57.0921 9.13803 57.2934 8.67277 57.2934 8.10908C57.2934 7.54539 57.0921 7.08012 56.6894 6.71328C56.2958 6.34643 55.7723 6.16301 55.1192 6.16301C54.4571 6.16301 53.9292 6.34643 53.5355 6.71328ZM67.3727 14.6318V11.8938H64.8763V8.3104H61.0111V11.8938H58.9174V14.6318H61.0111V22.4294C61.0111 23.4494 61.1811 24.2726 61.5211 24.8989C61.8611 25.5252 62.3442 25.9816 62.9705 26.2679C63.6058 26.5453 64.3484 26.6839 65.1984 26.6839C65.6637 26.6839 66.0887 26.6526 66.4735 26.59C66.8582 26.5274 67.2161 26.4424 67.5471 26.335L67.5337 23.4897C67.3995 23.5166 67.234 23.5434 67.0371 23.5702C66.8493 23.5881 66.6345 23.5971 66.3929 23.5971C66.0529 23.5971 65.7711 23.5568 65.5474 23.4763C65.3237 23.3868 65.1537 23.2302 65.0374 23.0065C64.93 22.7829 64.8763 22.4608 64.8763 22.0402V14.6318H67.3727ZM77.5655 25.052C77.4283 25.2109 77.2786 25.3657 77.1164 25.5163C76.7406 25.8563 76.2888 26.1381 75.7609 26.3618C75.233 26.5766 74.6067 26.6839 73.8819 26.6839C72.9603 26.6839 72.1238 26.5005 71.3722 26.1337C70.6295 25.7579 70.039 25.2434 69.6006 24.5902C69.1711 23.9281 68.9564 23.1765 68.9564 22.3355C68.9564 21.575 69.0995 20.8994 69.3858 20.3089C69.6722 19.7184 70.0927 19.2218 70.6474 18.8192C71.2111 18.4076 71.9135 18.0989 72.7546 17.8931C73.5956 17.6784 74.5709 17.571 75.6804 17.571H77.4117V16.6718C77.4117 16.2065 77.3356 15.8083 77.1835 15.4773C77.0314 15.1373 76.7943 14.8733 76.4722 14.6854C76.159 14.4975 75.7519 14.4036 75.2509 14.4036C74.8214 14.4036 74.4501 14.4796 74.1369 14.6318C73.8238 14.7749 73.5822 14.9852 73.4122 15.2625C73.2422 15.531 73.1572 15.8486 73.1572 16.2154H69.2919C69.2919 15.5981 69.4351 15.012 69.7214 14.4573C70.0077 13.9025 70.4237 13.4149 70.9695 12.9944C71.5153 12.5649 72.164 12.2294 72.9156 11.9878C73.6761 11.7462 74.5261 11.6254 75.4656 11.6254C76.593 11.6254 77.5951 11.8133 78.472 12.1891C79.3488 12.5649 80.0378 13.1286 80.5388 13.8802C81.0488 14.6318 81.3038 15.5712 81.3038 16.6986V22.9126C81.3038 23.7089 81.353 24.3621 81.4515 24.8721C81.5499 25.3731 81.693 25.8116 81.8809 26.1874V26.4155H77.9754C77.7996 26.0472 77.6629 25.5927 77.5655 25.052ZM77.4117 22.3111C77.3625 22.4029 77.3044 22.496 77.2372 22.5905C77.0046 22.9305 76.6735 23.2168 76.244 23.4494C75.8146 23.6821 75.309 23.7984 74.7275 23.7984C74.3427 23.7984 74.0072 23.7268 73.7209 23.5837C73.4346 23.4316 73.2153 23.2258 73.0632 22.9663C72.9111 22.6979 72.8351 22.3981 72.8351 22.0671C72.8351 21.736 72.8888 21.4318 72.9961 21.1544C73.1124 20.8771 73.2914 20.6355 73.533 20.4297C73.7746 20.215 74.0832 20.0494 74.459 19.9331C74.8348 19.8168 75.2777 19.7586 75.7877 19.7586H77.4117V22.3111ZM88.3633 26.4155V5.80064H84.4846V26.4155H88.3633ZM102.67 26.4155H104.643C105.967 26.4155 107.175 26.1963 108.267 25.7579C109.367 25.3105 110.311 24.6797 111.099 23.8655C111.895 23.0423 112.508 22.0581 112.937 20.9128C113.376 19.7676 113.595 18.5015 113.595 17.1147V16.1886C113.595 14.7928 113.376 13.5267 112.937 12.3904C112.508 11.2452 111.895 10.2609 111.099 9.43777C110.302 8.61461 109.358 7.98381 108.267 7.54539C107.184 7.09802 105.99 6.87433 104.683 6.87433H102.67H100.308H98.6439V26.4155H100.389H102.67ZM102.67 23.275H104.643C105.699 23.275 106.589 23.0379 107.314 22.5637C108.039 22.0805 108.585 21.3781 108.951 20.4565C109.327 19.5349 109.515 18.421 109.515 17.1147V16.1618C109.515 15.1597 109.408 14.2783 109.193 13.5178C108.987 12.7573 108.678 12.1175 108.267 11.5986C107.855 11.0796 107.35 10.6904 106.75 10.4309C106.151 10.1625 105.462 10.0283 104.683 10.0283H102.67V23.275ZM119.93 26.1471C120.825 26.505 121.836 26.6839 122.963 26.6839C123.903 26.6839 124.739 26.5587 125.473 26.3081C126.206 26.0487 126.833 25.7176 127.352 25.315C127.88 24.9124 128.296 24.4918 128.6 24.0534L126.721 22.0134C126.283 22.5681 125.759 22.9842 125.151 23.2616C124.551 23.53 123.903 23.6642 123.205 23.6642C122.641 23.6642 122.135 23.5658 121.688 23.3689C121.25 23.1721 120.874 22.8947 120.561 22.5368C120.256 22.1789 120.019 21.7539 119.849 21.2618C119.755 20.973 119.688 20.6688 119.649 20.3492H128.922V18.7386C128.922 17.6739 128.783 16.7076 128.506 15.8397C128.229 14.9628 127.817 14.2112 127.271 13.5849C126.734 12.9586 126.068 12.4754 125.271 12.1354C124.475 11.7954 123.563 11.6254 122.534 11.6254C121.478 11.6254 120.529 11.8088 119.688 12.1757C118.847 12.5336 118.131 13.0481 117.541 13.7191C116.959 14.3902 116.512 15.182 116.199 16.0947C115.886 17.0073 115.729 18.0139 115.729 19.1144V19.6513C115.729 20.6176 115.895 21.5302 116.226 22.3892C116.557 23.2392 117.031 23.9863 117.648 24.6305C118.275 25.2747 119.035 25.7803 119.93 26.1471ZM119.696 17.7723C119.717 17.6255 119.741 17.4824 119.769 17.3428C119.885 16.797 120.055 16.3228 120.279 15.9202C120.511 15.5175 120.811 15.2044 121.178 14.9807C121.545 14.757 121.983 14.6452 122.493 14.6452C123.093 14.6452 123.585 14.7704 123.97 15.021C124.354 15.2715 124.641 15.6115 124.829 16.041C125.025 16.4615 125.124 16.9402 125.124 17.477V17.7723H119.696ZM138.733 21.651C138.894 21.8747 138.974 22.1252 138.974 22.4026C138.974 22.7158 138.885 22.9931 138.706 23.2347C138.536 23.4673 138.286 23.6552 137.954 23.7984C137.623 23.9326 137.207 23.9997 136.706 23.9997C136.241 23.9997 135.807 23.9281 135.404 23.785C135.011 23.6418 134.684 23.4092 134.425 23.0871C134.174 22.765 134.04 22.34 134.022 21.8121H130.358C130.358 22.5994 130.595 23.3689 131.069 24.1205C131.553 24.8631 132.259 25.476 133.19 25.9592C134.129 26.4424 135.275 26.6839 136.626 26.6839C137.556 26.6839 138.393 26.5766 139.136 26.3618C139.887 26.1381 140.531 25.8295 141.068 25.4358C141.605 25.0331 142.017 24.5634 142.303 24.0266C142.589 23.4897 142.732 22.8992 142.732 22.255C142.732 21.3065 142.491 20.5415 142.008 19.9599C141.524 19.3694 140.871 18.9042 140.048 18.5641C139.225 18.2152 138.29 17.9334 137.243 17.7186C136.733 17.6202 136.304 17.5128 135.955 17.3965C135.615 17.2712 135.337 17.137 135.123 16.9939C134.908 16.8507 134.751 16.6941 134.653 16.5241C134.563 16.3452 134.519 16.1439 134.519 15.9202C134.519 15.6249 134.599 15.3565 134.76 15.1149C134.93 14.8644 135.172 14.6675 135.485 14.5244C135.798 14.3723 136.169 14.2962 136.599 14.2962C137.118 14.2962 137.538 14.3857 137.861 14.5646C138.192 14.7346 138.433 14.9718 138.585 15.276C138.746 15.5712 138.827 15.9068 138.827 16.2826H142.692C142.692 15.3878 142.446 14.5915 141.954 13.8936C141.471 13.1867 140.773 12.632 139.86 12.2294C138.957 11.8267 137.874 11.6254 136.612 11.6254C135.709 11.6254 134.894 11.7462 134.17 11.9878C133.454 12.2204 132.845 12.547 132.344 12.9675C131.852 13.3791 131.472 13.8533 131.204 14.3902C130.944 14.927 130.814 15.4997 130.814 16.1081C130.814 16.7255 130.944 17.2757 131.204 17.7589C131.463 18.2331 131.821 18.6447 132.277 18.9936C132.743 19.3426 133.288 19.6423 133.915 19.8928C134.55 20.1344 135.234 20.3357 135.968 20.4968C136.782 20.6578 137.404 20.8368 137.834 21.0336C138.272 21.2215 138.572 21.4273 138.733 21.651ZM149.322 26.4155V11.8938H145.443V26.4155H149.322ZM145.792 6.71328C145.399 7.08012 145.202 7.54539 145.202 8.10908C145.202 8.67277 145.399 9.13803 145.792 9.50488C146.186 9.87172 146.714 10.0551 147.376 10.0551C148.029 10.0551 148.553 9.87172 148.946 9.50488C149.349 9.13803 149.55 8.67277 149.55 8.10908C149.55 7.54539 149.349 7.08012 148.946 6.71328C148.553 6.34643 148.029 6.16301 147.376 6.16301C146.714 6.16301 146.186 6.34643 145.792 6.71328ZM165.213 11.8938H161.71L161.556 13.2684C161.189 12.8083 160.753 12.4396 160.247 12.1623C159.594 11.8044 158.784 11.6254 157.818 11.6254C156.905 11.6254 156.086 11.8044 155.362 12.1623C154.637 12.5202 154.02 13.0257 153.51 13.6789C153.009 14.332 152.619 15.1149 152.342 16.0276C152.074 16.9312 151.939 17.9378 151.939 19.0473V19.3292C151.939 20.385 152.074 21.3602 152.342 22.255C152.619 23.1497 153.013 23.9281 153.523 24.5902C154.033 25.2524 154.646 25.7668 155.362 26.1337C156.086 26.5005 156.896 26.6839 157.791 26.6839C158.686 26.6839 159.455 26.505 160.099 26.1471C160.566 25.8916 160.977 25.5631 161.334 25.1617V25.9592C161.334 26.6482 161.204 27.2342 160.945 27.7174C160.685 28.2095 160.314 28.5808 159.831 28.8313C159.348 29.0908 158.757 29.2205 158.059 29.2205C157.344 29.2205 156.69 29.0729 156.1 28.7776C155.509 28.4913 154.99 28.0887 154.543 27.5697L152.839 29.8513C153.25 30.3703 153.76 30.7998 154.369 31.1398C154.986 31.4798 155.63 31.7303 156.301 31.8913C156.981 32.0524 157.625 32.1329 158.234 32.1329C159.621 32.1329 160.838 31.8913 161.884 31.4082C162.931 30.934 163.745 30.2316 164.327 29.3011C164.918 28.3795 165.213 27.2566 165.213 25.9324V11.8938ZM161.334 16.0311V22.2969C161.123 22.6619 160.845 22.9611 160.502 23.1944C160.055 23.4897 159.478 23.6373 158.771 23.6373C158.261 23.6373 157.818 23.53 157.442 23.3152C157.075 23.0915 156.766 22.7829 156.516 22.3892C156.274 21.9865 156.095 21.5257 155.979 21.0068C155.863 20.4878 155.805 19.9286 155.805 19.3292V19.0473C155.805 18.4299 155.867 17.8573 155.992 17.3294C156.118 16.7926 156.301 16.3273 156.543 15.9336C156.793 15.5399 157.102 15.2312 157.469 15.0075C157.845 14.7749 158.287 14.6586 158.798 14.6586C159.325 14.6586 159.782 14.7481 160.166 14.927C160.551 15.106 160.864 15.3565 161.106 15.6786C161.188 15.7883 161.264 15.9058 161.334 16.0311ZM172.004 16.1141V26.4155H168.139V11.8938H171.762L171.898 13.63C171.924 13.5967 171.95 13.5638 171.977 13.5312C172.478 12.9138 173.073 12.4441 173.762 12.122C174.46 11.7909 175.238 11.6254 176.097 11.6254C176.777 11.6254 177.399 11.7238 177.963 11.9207C178.527 12.1175 179.01 12.4307 179.412 12.8602C179.824 13.2896 180.137 13.8578 180.352 14.5646C180.576 15.2715 180.687 16.1349 180.687 17.1549V26.4155H176.795V17.1415C176.795 16.4973 176.706 15.9962 176.527 15.6383C176.348 15.2804 176.084 15.0299 175.735 14.8868C175.395 14.7346 174.974 14.6586 174.473 14.6586C173.954 14.6586 173.503 14.7615 173.118 14.9673C172.742 15.1731 172.429 15.4594 172.178 15.8262C172.116 15.9181 172.058 16.014 172.004 16.1141ZM198.463 25.052C198.326 25.2109 198.176 25.3657 198.014 25.5163C197.638 25.8563 197.186 26.1381 196.659 26.3618C196.131 26.5766 195.504 26.6839 194.78 26.6839C193.858 26.6839 193.021 26.5005 192.27 26.1337C191.527 25.7579 190.937 25.2434 190.498 24.5902C190.069 23.9281 189.854 23.1765 189.854 22.3355C189.854 21.575 189.997 20.8994 190.284 20.3089C190.57 19.7184 190.99 19.2218 191.545 18.8192C192.109 18.4076 192.811 18.0989 193.652 17.8931C194.493 17.6784 195.469 17.571 196.578 17.571H198.309V16.6718C198.309 16.2065 198.233 15.8083 198.081 15.4773C197.929 15.1373 197.692 14.8733 197.37 14.6854C197.057 14.4975 196.65 14.4036 196.149 14.4036C195.719 14.4036 195.348 14.4796 195.035 14.6318C194.721 14.7749 194.48 14.9852 194.31 15.2625C194.14 15.531 194.055 15.8486 194.055 16.2154H190.19C190.19 15.5981 190.333 15.012 190.619 14.4573C190.905 13.9025 191.321 13.4149 191.867 12.9944C192.413 12.5649 193.062 12.2294 193.813 11.9878C194.574 11.7462 195.424 11.6254 196.363 11.6254C197.491 11.6254 198.493 11.8133 199.37 12.1891C200.246 12.5649 200.935 13.1286 201.436 13.8802C201.946 14.6318 202.201 15.5712 202.201 16.6986V22.9126C202.201 23.7089 202.251 24.3621 202.349 24.8721C202.448 25.3731 202.591 25.8116 202.779 26.1874V26.4155H198.873C198.697 26.0472 198.561 25.5927 198.463 25.052ZM198.309 22.3111C198.26 22.4029 198.202 22.496 198.135 22.5905C197.902 22.9305 197.571 23.2168 197.142 23.4494C196.712 23.6821 196.207 23.7984 195.625 23.7984C195.24 23.7984 194.905 23.7268 194.619 23.5837C194.332 23.4316 194.113 23.2258 193.961 22.9663C193.809 22.6979 193.733 22.3981 193.733 22.0671C193.733 21.736 193.786 21.4318 193.894 21.1544C194.01 20.8771 194.189 20.6355 194.431 20.4297C194.672 20.215 194.981 20.0494 195.357 19.9331C195.732 19.8168 196.175 19.7586 196.685 19.7586H198.309V22.3111ZM208.966 16.1141V26.4155H205.1V11.8938H208.724L208.859 13.63C208.886 13.5967 208.912 13.5638 208.939 13.5312C209.44 12.9138 210.035 12.4441 210.724 12.122C211.422 11.7909 212.2 11.6254 213.059 11.6254C213.739 11.6254 214.361 11.7238 214.925 11.9207C215.488 12.1175 215.972 12.4307 216.374 12.8602C216.786 13.2896 217.099 13.8578 217.314 14.5646C217.537 15.2715 217.649 16.1349 217.649 17.1549V26.4155H213.757V17.1415C213.757 16.4973 213.668 15.9962 213.489 15.6383C213.31 15.2804 213.046 15.0299 212.697 14.8868C212.357 14.7346 211.936 14.6586 211.435 14.6586C210.916 14.6586 210.464 14.7615 210.08 14.9673C209.704 15.1731 209.391 15.4594 209.14 15.8262C209.078 15.9181 209.02 16.014 208.966 16.1141ZM229.364 24.8672C228.949 25.405 228.457 25.8317 227.89 26.1471C227.245 26.505 226.494 26.6839 225.635 26.6839C224.731 26.6839 223.926 26.5005 223.219 26.1337C222.521 25.7668 221.931 25.2524 221.447 24.5902C220.973 23.9281 220.611 23.1497 220.36 22.255C220.11 21.3602 219.985 20.385 219.985 19.3292V19.0473C219.985 17.9378 220.11 16.9312 220.36 16.0276C220.611 15.1149 220.978 14.332 221.461 13.6789C221.944 13.0257 222.539 12.5202 223.246 12.1623C223.953 11.8044 224.758 11.6254 225.662 11.6254C226.512 11.6254 227.254 11.8044 227.89 12.1623C228.369 12.4287 228.794 12.7794 229.165 13.2143V5.80064H233.057V26.4155H229.554L229.364 24.8672ZM229.165 16.2261C229.069 16.026 228.957 15.8435 228.829 15.6786C228.587 15.3565 228.283 15.106 227.916 14.927C227.559 14.7481 227.133 14.6586 226.641 14.6586C226.14 14.6586 225.711 14.7749 225.353 15.0075C224.995 15.2312 224.704 15.5399 224.481 15.9336C224.266 16.3273 224.105 16.7926 223.997 17.3294C223.899 17.8573 223.85 18.4299 223.85 19.0473V19.3292C223.85 19.9286 223.895 20.4878 223.984 21.0068C224.082 21.5257 224.239 21.9865 224.454 22.3892C224.677 22.7829 224.964 23.0915 225.313 23.3152C225.671 23.53 226.105 23.6373 226.615 23.6373C227.277 23.6373 227.822 23.4897 228.252 23.1944C228.64 22.9194 228.944 22.5529 229.165 22.0949V16.2261ZM257.966 6.87433H253.953V19.7855C253.953 20.6623 253.815 21.3781 253.537 21.9329C253.269 22.4876 252.875 22.8947 252.356 23.1542C251.846 23.4137 251.224 23.5434 250.491 23.5434C249.775 23.5434 249.153 23.4137 248.625 23.1542C248.106 22.8947 247.708 22.4876 247.431 21.9329C247.153 21.3781 247.015 20.6623 247.015 19.7855V6.87433H242.988V19.7855C242.988 21.2886 243.306 22.5547 243.941 23.5837C244.585 24.6126 245.471 25.3866 246.599 25.9055C247.735 26.4245 249.032 26.6839 250.491 26.6839C251.949 26.6839 253.238 26.4245 254.356 25.9055C255.483 25.3866 256.365 24.6126 257 23.5837C257.644 22.5547 257.966 21.2886 257.966 19.7855V6.87433ZM268.65 21.651C268.811 21.8747 268.891 22.1252 268.891 22.4026C268.891 22.7158 268.802 22.9931 268.623 23.2347C268.453 23.4673 268.202 23.6552 267.871 23.7984C267.54 23.9326 267.124 23.9997 266.623 23.9997C266.158 23.9997 265.724 23.9281 265.321 23.785C264.927 23.6418 264.601 23.4092 264.341 23.0871C264.091 22.765 263.957 22.34 263.939 21.8121H260.275C260.275 22.5994 260.512 23.3689 260.986 24.1205C261.469 24.8631 262.176 25.476 263.107 25.9592C264.046 26.4424 265.191 26.6839 266.542 26.6839C267.473 26.6839 268.31 26.5766 269.052 26.3618C269.804 26.1381 270.448 25.8295 270.985 25.4358C271.522 25.0331 271.933 24.5634 272.22 24.0266C272.506 23.4897 272.649 22.8992 272.649 22.255C272.649 21.3065 272.408 20.5415 271.924 19.9599C271.441 19.3694 270.788 18.9042 269.965 18.5641C269.142 18.2152 268.207 17.9334 267.16 17.7186C266.65 17.6202 266.22 17.5128 265.871 17.3965C265.531 17.2712 265.254 17.137 265.039 16.9939C264.825 16.8507 264.668 16.6941 264.57 16.5241C264.48 16.3452 264.435 16.1439 264.435 15.9202C264.435 15.6249 264.516 15.3565 264.677 15.1149C264.847 14.8644 265.089 14.6675 265.402 14.5244C265.715 14.3723 266.086 14.2962 266.516 14.2962C267.035 14.2962 267.455 14.3857 267.777 14.5646C268.108 14.7346 268.35 14.9718 268.502 15.276C268.663 15.5712 268.744 15.9068 268.744 16.2826H272.609C272.609 15.3878 272.363 14.5915 271.871 13.8936C271.387 13.1867 270.69 12.632 269.777 12.2294C268.873 11.8267 267.791 11.6254 266.529 11.6254C265.625 11.6254 264.811 11.7462 264.086 11.9878C263.371 12.2204 262.762 12.547 262.261 12.9675C261.769 13.3791 261.389 13.8533 261.12 14.3902C260.861 14.927 260.731 15.4997 260.731 16.1081C260.731 16.7255 260.861 17.2757 261.12 17.7589C261.38 18.2331 261.738 18.6447 262.194 18.9936C262.659 19.3426 263.205 19.6423 263.831 19.8928C264.467 20.1344 265.151 20.3357 265.885 20.4968C266.699 20.6578 267.321 20.8368 267.75 21.0336C268.189 21.2215 268.489 21.4273 268.65 21.651ZM278.809 26.1471C279.704 26.505 280.715 26.6839 281.843 26.6839C282.782 26.6839 283.619 26.5587 284.352 26.3081C285.086 26.0487 285.712 25.7176 286.231 25.315C286.759 24.9124 287.175 24.4918 287.479 24.0534L285.6 22.0134C285.162 22.5681 284.639 22.9842 284.03 23.2616C283.431 23.53 282.782 23.6642 282.084 23.6642C281.52 23.6642 281.015 23.5658 280.568 23.3689C280.129 23.1721 279.753 22.8947 279.44 22.5368C279.136 22.1789 278.899 21.7539 278.729 21.2618C278.634 20.973 278.568 20.6688 278.529 20.3492H287.802V18.7386C287.802 17.6739 287.663 16.7076 287.385 15.8397C287.108 14.9628 286.697 14.2112 286.151 13.5849C285.614 12.9586 284.947 12.4754 284.151 12.1354C283.355 11.7954 282.442 11.6254 281.413 11.6254C280.357 11.6254 279.409 11.8088 278.568 12.1757C277.727 12.5336 277.011 13.0481 276.42 13.7191C275.839 14.3902 275.391 15.182 275.078 16.0947C274.765 17.0073 274.609 18.0139 274.609 19.1144V19.6513C274.609 20.6176 274.774 21.5302 275.105 22.3892C275.436 23.2392 275.91 23.9863 276.528 24.6305C277.154 25.2747 277.915 25.7803 278.809 26.1471ZM278.575 17.7723C278.596 17.6255 278.62 17.4824 278.648 17.3428C278.765 16.797 278.935 16.3228 279.158 15.9202C279.391 15.5175 279.691 15.2044 280.058 14.9807C280.424 14.757 280.863 14.6452 281.373 14.6452C281.972 14.6452 282.464 14.7704 282.849 15.021C283.234 15.2715 283.52 15.6115 283.708 16.041C283.905 16.4615 284.003 16.9402 284.003 17.477V17.7723H278.575ZM293.868 16.8373V26.4155H290.003V11.8938H293.64L293.768 13.6732C293.805 13.6068 293.843 13.5416 293.881 13.4775C294.248 12.887 294.696 12.4307 295.223 12.1086C295.751 11.7865 296.355 11.6254 297.035 11.6254C297.25 11.6254 297.469 11.6433 297.693 11.6791C297.917 11.7059 298.1 11.7462 298.243 11.7999L298.176 15.3833C297.988 15.3565 297.76 15.3341 297.492 15.3162C297.232 15.2894 296.995 15.276 296.78 15.276C296.234 15.276 295.76 15.3475 295.358 15.4907C294.964 15.6249 294.633 15.8262 294.364 16.0947C294.16 16.3061 293.995 16.5536 293.868 16.8373ZM320.267 26.4155V23.275H311.181V17.8931H318.912V14.8331H311.181V10.0283H320.254V6.87433H311.181H309.866H307.155V26.4155H309.866H311.181H320.267ZM327.891 16.3094L325.488 11.8938H321.354L325.461 18.9936L321.167 26.4155H325.3L327.917 21.745L330.534 26.4155H334.668L330.373 18.9936L334.48 11.8938H330.36L327.891 16.3094ZM340.225 25.1543V31.9987H336.359V11.8938H339.943L340.087 13.3232C340.48 12.8393 340.937 12.4523 341.459 12.1623C342.112 11.8044 342.877 11.6254 343.754 11.6254C344.676 11.6254 345.486 11.7999 346.184 12.1488C346.89 12.4978 347.481 12.9988 347.955 13.652C348.438 14.3052 348.801 15.0836 349.042 15.9873C349.293 16.891 349.418 17.8931 349.418 18.9936V19.2755C349.418 20.3313 349.293 21.311 349.042 22.2147C348.801 23.1184 348.443 23.9058 347.969 24.5768C347.494 25.2389 346.904 25.7579 346.197 26.1337C345.499 26.5005 344.694 26.6839 343.781 26.6839C342.895 26.6839 342.126 26.505 341.473 26.1471C341.004 25.89 340.587 25.5591 340.225 25.1543ZM340.225 22.1587C340.429 22.5911 340.72 22.9409 341.097 23.2079C341.526 23.5121 342.09 23.6642 342.788 23.6642C343.298 23.6642 343.727 23.5523 344.076 23.3287C344.425 23.096 344.707 22.7784 344.922 22.3758C345.146 21.9731 345.302 21.5079 345.392 20.98C345.49 20.4521 345.539 19.8839 345.539 19.2755V18.9936C345.539 18.3763 345.486 17.8081 345.378 17.2891C345.28 16.7612 345.119 16.3004 344.895 15.9068C344.68 15.5131 344.394 15.2089 344.036 14.9941C343.687 14.7704 343.262 14.6586 342.761 14.6586C342.233 14.6586 341.781 14.7436 341.406 14.9136C341.039 15.0836 340.739 15.3297 340.506 15.6518C340.4 15.7986 340.306 15.9584 340.225 16.1313V22.1587ZM355.471 26.1471C356.366 26.505 357.377 26.6839 358.504 26.6839C359.444 26.6839 360.28 26.5587 361.014 26.3081C361.748 26.0487 362.374 25.7176 362.893 25.315C363.421 24.9124 363.837 24.4918 364.141 24.0534L362.262 22.0134C361.824 22.5681 361.3 22.9842 360.692 23.2616C360.092 23.53 359.444 23.6642 358.746 23.6642C358.182 23.6642 357.677 23.5658 357.229 23.3689C356.791 23.1721 356.415 22.8947 356.102 22.5368C355.798 22.1789 355.56 21.7539 355.39 21.2618C355.296 20.973 355.229 20.6688 355.19 20.3492H364.463V18.7386C364.463 17.6739 364.324 16.7076 364.047 15.8397C363.77 14.9628 363.358 14.2112 362.812 13.5849C362.275 12.9586 361.609 12.4754 360.813 12.1354C360.016 11.7954 359.104 11.6254 358.075 11.6254C357.019 11.6254 356.07 11.8088 355.229 12.1757C354.388 12.5336 353.673 13.0481 353.082 13.7191C352.5 14.3902 352.053 15.182 351.74 16.0947C351.427 17.0073 351.27 18.0139 351.27 19.1144V19.6513C351.27 20.6176 351.436 21.5302 351.767 22.3892C352.098 23.2392 352.572 23.9863 353.189 24.6305C353.816 25.2747 354.576 25.7803 355.471 26.1471ZM355.237 17.7723C355.258 17.6255 355.282 17.4824 355.31 17.3428C355.426 16.797 355.596 16.3228 355.82 15.9202C356.053 15.5175 356.352 15.2044 356.719 14.9807C357.086 14.757 357.524 14.6452 358.034 14.6452C358.634 14.6452 359.126 14.7704 359.511 15.021C359.895 15.2715 360.182 15.6115 360.37 16.041C360.567 16.4615 360.665 16.9402 360.665 17.477V17.7723H355.237ZM370.529 16.8373V26.4155H366.664V11.8938H370.301L370.43 13.6732C370.466 13.6068 370.504 13.5416 370.543 13.4775C370.91 12.887 371.357 12.4307 371.885 12.1086C372.413 11.7865 373.017 11.6254 373.697 11.6254C373.912 11.6254 374.131 11.6433 374.355 11.6791C374.578 11.7059 374.762 11.7462 374.905 11.7999L374.838 15.3833C374.65 15.3565 374.422 15.3341 374.153 15.3162C373.894 15.2894 373.657 15.276 373.442 15.276C372.896 15.276 372.422 15.3475 372.019 15.4907C371.626 15.6249 371.294 15.8262 371.026 16.0947C370.822 16.3061 370.656 16.5536 370.529 16.8373ZM380.81 26.4155V11.8938H376.931V26.4155H380.81ZM377.28 6.71328C376.887 7.08012 376.69 7.54539 376.69 8.10908C376.69 8.67277 376.887 9.13803 377.28 9.50488C377.674 9.87172 378.202 10.0551 378.864 10.0551C379.517 10.0551 380.041 9.87172 380.434 9.50488C380.837 9.13803 381.038 8.67277 381.038 8.10908C381.038 7.54539 380.837 7.08012 380.434 6.71328C380.041 6.34643 379.517 6.16301 378.864 6.16301C378.202 6.16301 377.674 6.34643 377.28 6.71328ZM387.655 26.1471C388.55 26.505 389.561 26.6839 390.688 26.6839C391.628 26.6839 392.464 26.5587 393.198 26.3081C393.931 26.0487 394.558 25.7176 395.077 25.315C395.605 24.9124 396.021 24.4918 396.325 24.0534L394.446 22.0134C394.008 22.5681 393.484 22.9842 392.876 23.2616C392.276 23.53 391.628 23.6642 390.93 23.6642C390.366 23.6642 389.86 23.5658 389.413 23.3689C388.975 23.1721 388.599 22.8947 388.286 22.5368C387.981 22.1789 387.744 21.7539 387.574 21.2618C387.48 20.973 387.413 20.6688 387.374 20.3492H396.647V18.7386C396.647 17.6739 396.508 16.7076 396.231 15.8397C395.954 14.9628 395.542 14.2112 394.996 13.5849C394.459 12.9586 393.793 12.4754 392.996 12.1354C392.2 11.7954 391.288 11.6254 390.259 11.6254C389.203 11.6254 388.254 11.8088 387.413 12.1757C386.572 12.5336 385.856 13.0481 385.266 13.7191C384.684 14.3902 384.237 15.182 383.924 16.0947C383.611 17.0073 383.454 18.0139 383.454 19.1144V19.6513C383.454 20.6176 383.62 21.5302 383.951 22.3892C384.282 23.2392 384.756 23.9863 385.373 24.6305C386 25.2747 386.76 25.7803 387.655 26.1471ZM387.421 17.7723C387.442 17.6255 387.466 17.4824 387.494 17.3428C387.61 16.797 387.78 16.3228 388.004 15.9202C388.236 15.5175 388.536 15.2044 388.903 14.9807C389.27 14.757 389.708 14.6452 390.218 14.6452C390.818 14.6452 391.31 14.7704 391.695 15.021C392.079 15.2715 392.366 15.6115 392.554 16.041C392.75 16.4615 392.849 16.9402 392.849 17.477V17.7723H387.421ZM402.633 16.1141V26.4155H398.768V11.8938H402.391L402.527 13.63C402.553 13.5967 402.579 13.5638 402.606 13.5312C403.107 12.9138 403.702 12.4441 404.391 12.122C405.089 11.7909 405.867 11.6254 406.726 11.6254C407.406 11.6254 408.028 11.7238 408.592 11.9207C409.156 12.1175 409.639 12.4307 410.041 12.8602C410.453 13.2896 410.766 13.8578 410.981 14.5646C411.204 15.2715 411.316 16.1349 411.316 17.1549V26.4155H407.424V17.1415C407.424 16.4973 407.335 15.9962 407.156 15.6383C406.977 15.2804 406.713 15.0299 406.364 14.8868C406.024 14.7346 405.603 14.6586 405.102 14.6586C404.583 14.6586 404.132 14.7615 403.747 14.9673C403.371 15.1731 403.058 15.4594 402.807 15.8262C402.745 15.9181 402.687 16.014 402.633 16.1141ZM421.516 23.3958C421.15 23.5747 420.729 23.6642 420.255 23.6642C419.682 23.6642 419.217 23.5479 418.859 23.3152C418.501 23.0826 418.219 22.765 418.013 22.3623C417.817 21.9597 417.682 21.4989 417.611 20.98C417.539 20.461 417.503 19.9197 417.503 19.356V18.9668C417.503 18.4031 417.539 17.8662 417.611 17.3562C417.691 16.8373 417.83 16.3765 418.027 15.9739C418.224 15.5623 418.501 15.2402 418.859 15.0075C419.217 14.766 419.678 14.6452 420.241 14.6452C420.769 14.6452 421.212 14.766 421.57 15.0075C421.937 15.2402 422.214 15.5533 422.402 15.947C422.599 16.3407 422.702 16.7791 422.711 17.2623H426.348C426.339 16.1081 426.075 15.1104 425.556 14.2694C425.046 13.4194 424.339 12.7662 423.436 12.3099C422.541 11.8536 421.499 11.6254 420.309 11.6254C419.19 11.6254 418.215 11.8133 417.383 12.1891C416.551 12.5649 415.857 13.0883 415.302 13.7594C414.748 14.4215 414.332 15.1999 414.054 16.0947C413.777 16.9805 413.638 17.9378 413.638 18.9668V19.356C413.638 20.376 413.777 21.3334 414.054 22.2281C414.332 23.1139 414.748 23.8923 415.302 24.5634C415.857 25.2255 416.551 25.7445 417.383 26.1203C418.224 26.496 419.208 26.6839 420.335 26.6839C421.454 26.6839 422.465 26.4603 423.369 26.0129C424.272 25.5566 424.992 24.9347 425.529 24.1473C426.066 23.351 426.339 22.4429 426.348 21.4229H422.711C422.702 21.8792 422.59 22.2773 422.375 22.6173C422.17 22.9484 421.883 23.2079 421.516 23.3958ZM432.24 26.1471C433.135 26.505 434.146 26.6839 435.273 26.6839C436.213 26.6839 437.049 26.5587 437.783 26.3081C438.517 26.0487 439.143 25.7176 439.662 25.315C440.19 24.9124 440.606 24.4918 440.91 24.0534L439.031 22.0134C438.593 22.5681 438.069 22.9842 437.461 23.2616C436.861 23.53 436.213 23.6642 435.515 23.6642C434.951 23.6642 434.445 23.5658 433.998 23.3689C433.56 23.1721 433.184 22.8947 432.871 22.5368C432.566 22.1789 432.329 21.7539 432.159 21.2618C432.065 20.973 431.998 20.6688 431.959 20.3492H441.232V18.7386C441.232 17.6739 441.093 16.7076 440.816 15.8397C440.539 14.9628 440.127 14.2112 439.581 13.5849C439.044 12.9586 438.378 12.4754 437.582 12.1354C436.785 11.7954 435.873 11.6254 434.844 11.6254C433.788 11.6254 432.839 11.8088 431.998 12.1757C431.157 12.5336 430.441 13.0481 429.851 13.7191C429.269 14.3902 428.822 15.182 428.509 16.0947C428.196 17.0073 428.039 18.0139 428.039 19.1144V19.6513C428.039 20.6176 428.205 21.5302 428.536 22.3892C428.867 23.2392 429.341 23.9863 429.958 24.6305C430.585 25.2747 431.345 25.7803 432.24 26.1471ZM432.006 17.7723C432.027 17.6255 432.051 17.4824 432.079 17.3428C432.195 16.797 432.365 16.3228 432.589 15.9202C432.821 15.5175 433.121 15.2044 433.488 14.9807C433.855 14.757 434.293 14.6452 434.803 14.6452C435.403 14.6452 435.895 14.7704 436.28 15.021C436.664 15.2715 436.951 15.6115 437.139 16.041C437.335 16.4615 437.434 16.9402 437.434 17.477V17.7723H432.006Z" fill="white"/>
</svg>
